<svg width="488" height="363" viewBox="0 0 488 363" fill="none" xmlns="http://www.w3.org/2000/svg">
<path d="M487.549 318.952H0.451172V319.195H487.549V318.952Z" fill="#EBEBEB"/>
<path d="M438.742 334.626H417.621V334.87H438.742V334.626Z" fill="#EBEBEB"/>
<path d="M336.227 329.58H302.997V329.824H336.227V329.58Z" fill="#EBEBEB"/>
<path d="M430.188 325.586H386.807V325.829H430.188V325.586Z" fill="#EBEBEB"/>
<path d="M169.007 330.496H158.154V330.739H169.007V330.496Z" fill="#EBEBEB"/>
<path d="M149.475 330.496H112.075V330.739H149.475V330.496Z" fill="#EBEBEB"/>
<path d="M92.035 326.385H65.0498V326.628H92.035V326.385Z" fill="#EBEBEB"/>
<path d="M231.335 275.502H43.2277C41.7541 275.5 40.3417 274.913 39.3006 273.87C38.2595 272.827 37.6748 271.413 37.6748 269.94V5.51395C37.6876 4.04878 38.278 2.64784 39.3177 1.61543C40.3574 0.583015 41.7625 0.0025099 43.2277 0H231.335C232.81 0 234.225 0.586064 235.268 1.62926C236.312 2.67246 236.898 4.08735 236.898 5.56265V269.94C236.898 271.415 236.312 272.83 235.268 273.873C234.225 274.916 232.81 275.502 231.335 275.502ZM43.2277 0.19484C41.8187 0.19742 40.4683 0.758962 39.4728 1.75621C38.4774 2.75345 37.9184 4.10492 37.9184 5.51395V269.94C37.9184 271.349 38.4774 272.7 39.4728 273.697C40.4683 274.695 41.8187 275.256 43.2277 275.259H231.335C232.745 275.256 234.096 274.695 235.093 273.698C236.09 272.701 236.652 271.35 236.654 269.94V5.51395C236.652 4.10402 236.09 2.75258 235.093 1.75561C234.096 0.758645 232.745 0.197415 231.335 0.19484H43.2277Z" fill="#EBEBEB"/>
<path d="M442.064 275.502H253.946C252.472 275.5 251.059 274.913 250.016 273.87C248.973 272.828 248.386 271.414 248.384 269.94V5.51395C248.399 4.04789 248.992 2.64696 250.033 1.61482C251.074 0.582675 252.48 0.00248253 253.946 0H442.064C443.527 0.0050702 444.93 0.586708 445.967 1.61885C447.005 2.65099 447.594 4.05046 447.607 5.51395V269.94C447.607 271.412 447.023 272.824 445.984 273.866C444.945 274.909 443.535 275.497 442.064 275.502ZM253.946 0.19484C252.537 0.197415 251.185 0.758645 250.188 1.75561C249.191 2.75258 248.63 4.10402 248.627 5.51395V269.94C248.63 271.35 249.191 272.701 250.188 273.698C251.185 274.695 252.537 275.256 253.946 275.259H442.064C443.473 275.256 444.825 274.695 445.822 273.698C446.819 272.701 447.38 271.35 447.383 269.94V5.51395C447.38 4.10402 446.819 2.75258 445.822 1.75561C444.825 0.758645 443.473 0.197415 442.064 0.19484H253.946Z" fill="#EBEBEB"/>
<path d="M210.945 142.116L211.384 129.315L203.532 126.743C203.194 122.405 202.49 118.103 201.427 113.883L208.091 109.012L203.571 96.9909L195.329 97.6533C193.375 93.7801 191.093 90.081 188.51 86.5962L192.777 79.4748L184.009 70.1128L176.644 73.883C173.332 71.0521 169.794 68.4976 166.064 66.2453L167.253 58.062L155.562 52.7624L150.204 59.0362C146.071 57.714 141.835 56.7364 137.54 56.1136L135.591 48.096L122.751 47.6576L120.218 55.5194C115.885 55.8601 111.587 56.5607 107.369 57.6139L102.42 50.9894L90.3983 55.4804L91.0608 63.7221C87.1896 65.7059 83.4911 68.0098 80.0037 70.6097L72.8336 66.2453L63.4326 75.013L67.2028 82.4169C64.3711 85.7121 61.8288 89.2453 59.604 92.9772L51.4305 91.7497L46.0919 103.44L52.4047 108.788C51.0731 112.919 50.0954 117.156 49.4821 121.453L41.3671 123.489L40.9287 136.29L48.8197 138.862C49.1461 143.197 49.8469 147.497 50.9142 151.711L44.2507 156.582L48.7807 168.614L57.0224 167.951C58.9715 171.827 61.2532 175.527 63.8418 179.008L59.5651 186.13L68.3328 195.492L75.6977 191.722C79.0009 194.552 82.5331 197.103 86.258 199.35L85.0305 207.523L96.7209 212.832L102.108 206.559C106.242 207.893 110.477 208.887 114.773 209.53L116.721 217.548L129.561 217.986L132.094 210.124C136.431 209.779 140.731 209.079 144.953 208.03L149.824 214.654L161.846 210.163L161.222 201.921C165.086 199.925 168.784 197.622 172.279 195.034L179.362 199.301L188.763 190.533L184.993 183.129C187.825 179.835 190.368 176.301 192.591 172.569L200.765 173.796L206.104 162.106L199.791 156.748C201.145 152.62 202.139 148.383 202.762 144.083L210.945 142.116ZM124.446 183.587C114.401 183.248 104.681 179.937 96.5171 174.072C88.3533 168.208 82.112 160.054 78.5829 150.643C75.0538 141.231 74.3954 130.984 76.6908 121.198C78.9863 111.412 84.1326 102.526 91.4787 95.6654C98.8249 88.8046 108.041 84.2766 117.961 82.6542C127.881 81.0319 138.059 82.3881 147.208 86.5512C156.357 90.7143 164.066 97.4973 169.359 106.042C174.653 114.587 177.293 124.51 176.946 134.556C176.483 148.019 170.693 160.747 160.848 169.942C151.003 179.136 137.91 184.044 124.446 183.587Z" fill="#EBEBEB"/>
<path d="M430.07 99.7771L433.295 96.7668L432.019 94.2242C432.992 93.0848 433.869 91.8661 434.639 90.5807L437.465 90.9996L439.286 86.9664L437.124 85.1252C437.589 83.6992 437.932 82.2357 438.147 80.751L440.923 80.0594L441.059 75.6365L438.351 74.7597C438.232 73.2618 437.991 71.7761 437.63 70.3174L439.92 68.6126L438.361 64.4722L435.526 64.6963C434.842 63.361 434.051 62.0838 433.159 60.8775L434.63 58.442L431.6 55.2076L429.067 56.5033C427.926 55.532 426.707 54.6556 425.424 53.8827L425.833 51.0576L421.809 49.2163L419.958 51.3888C418.53 50.9439 417.067 50.6181 415.584 50.4146L414.892 47.6479L410.47 47.4823L409.583 50.21C408.091 50.3241 406.611 50.5652 405.16 50.9309L403.465 48.6416L399.315 50.1905L399.549 53.0352C398.21 53.7121 396.932 54.5042 395.73 55.4025L393.275 53.9314L390.041 56.9417L391.297 59.4259C390.317 60.5619 389.437 61.781 388.667 63.0694L385.852 62.6505L384.02 66.6837L386.193 68.5346C385.742 69.9585 385.416 71.4188 385.218 72.899L382.432 73.5907L382.296 78.0136L385.014 78.8903C385.125 80.3886 385.363 81.8747 385.725 83.3327L383.426 85.0278L384.985 89.1681L387.829 88.9538C388.513 90.2891 389.305 91.5663 390.197 92.7726L388.726 95.2081L391.755 98.4424L394.288 97.1468C395.427 98.1212 396.646 98.9978 397.932 99.7673L397.513 102.583L401.546 104.424L403.397 102.261C404.827 102.702 406.29 103.027 407.771 103.235L408.463 106.002L412.886 106.168L413.772 103.44C415.264 103.327 416.744 103.085 418.195 102.719L419.89 105.008L424.04 103.46L423.816 100.615C425.152 99.937 426.426 99.1449 427.625 98.2476L430.07 99.7771ZM407.06 81.1407C406.209 80.2291 405.648 79.0857 405.447 77.8551C405.246 76.6245 405.415 75.362 405.932 74.2273C406.449 73.0926 407.291 72.1367 408.351 71.4806C409.411 70.8244 410.642 70.4975 411.889 70.5411C413.135 70.5847 414.34 70.997 415.352 71.7257C416.363 72.4544 417.136 73.4668 417.573 74.6348C418.009 75.8029 418.089 77.0741 417.803 78.2877C417.516 79.5012 416.876 80.6026 415.964 81.4525C415.359 82.0234 414.646 82.4686 413.867 82.7622C413.088 83.0558 412.259 83.1921 411.427 83.1631C410.596 83.1341 409.778 82.9404 409.022 82.5933C408.265 82.2461 407.585 81.7524 407.021 81.1407H407.06Z" fill="#EBEBEB"/>
<path d="M312.194 231.215L302.121 224.25C301.133 220.623 299.775 217.107 298.068 213.758L300.649 203.626L286.037 187.981L275.749 189.861C272.521 187.927 269.104 186.331 265.549 185.097L259.295 174.566L237.863 173.835L230.907 183.909C227.284 184.895 223.772 186.25 220.425 187.951L210.293 185.37L194.647 199.983L196.527 210.251C194.596 213.485 193.003 216.909 191.773 220.47L181.242 226.724L180.512 248.157L190.595 255.113C191.566 258.759 192.921 262.293 194.638 265.653L192.027 275.697L206.64 291.343L216.859 289.472C220.111 291.408 223.551 293.008 227.127 294.246L233.372 304.757L254.804 305.498L261.75 295.425C265.405 294.438 268.95 293.08 272.33 291.372L282.403 293.944L298.058 279.331L296.178 269.063C298.116 265.829 299.709 262.4 300.932 258.834L311.463 252.58L312.194 231.215ZM245.51 263.744C240.752 263.581 236.149 262.011 232.283 259.233C228.418 256.455 225.462 252.592 223.791 248.134C222.121 243.677 221.809 238.823 222.896 234.189C223.983 229.554 226.42 225.345 229.899 222.095C233.378 218.845 237.742 216.7 242.44 215.93C247.138 215.16 251.959 215.801 256.293 217.771C260.627 219.741 264.28 222.951 266.789 226.997C269.299 231.043 270.552 235.742 270.391 240.5C270.167 246.881 267.421 252.913 262.754 257.271C258.087 261.629 251.882 263.957 245.5 263.744H245.51Z" fill="#EBEBEB"/>
<path d="M335.135 170.484H335.067L318.194 169.909C317.852 169.903 317.518 169.811 317.221 169.64C316.925 169.47 316.677 169.227 316.499 168.935L311.95 161.288C309.497 160.391 307.125 159.289 304.857 157.995L297.58 159.252C297.241 159.314 296.892 159.289 296.565 159.18C296.238 159.071 295.944 158.881 295.71 158.628L284.185 146.295C283.943 146.039 283.771 145.726 283.686 145.385C283.601 145.043 283.605 144.686 283.698 144.347L285.539 137.128C284.398 134.789 283.466 132.353 282.753 129.85L275.417 124.785C275.133 124.589 274.902 124.325 274.747 124.017C274.592 123.709 274.518 123.366 274.531 123.021L275.106 106.148C275.117 105.808 275.212 105.475 275.382 105.179C275.551 104.884 275.791 104.635 276.08 104.453L283.747 99.9037C284.631 97.4573 285.729 95.0938 287.03 92.8408L285.685 85.5051C285.622 85.1646 285.647 84.8137 285.756 84.485C285.865 84.1563 286.055 83.8604 286.309 83.6249L298.642 72.1099C298.897 71.8672 299.21 71.694 299.551 71.607C299.893 71.52 300.25 71.5221 300.59 71.6131L307.838 73.4641C310.172 72.3227 312.6 71.3872 315.096 70.6681L320.162 63.3324C320.35 63.0411 320.613 62.8052 320.923 62.6494C321.233 62.4935 321.579 62.4233 321.925 62.4459L338.789 63.0304C339.132 63.0377 339.467 63.1307 339.765 63.3008C340.063 63.471 340.313 63.7129 340.493 64.0046L345.043 71.6618C347.478 72.5556 349.831 73.6573 352.077 74.9546L359.442 73.6005C359.781 73.5375 360.13 73.5616 360.457 73.6707C360.784 73.7797 361.079 73.9701 361.312 74.2239L372.837 86.5573C373.077 86.8137 373.248 87.1273 373.333 87.4682C373.418 87.8092 373.415 88.1663 373.324 88.5056L371.473 95.7439C372.614 98.0784 373.553 100.507 374.279 103.002L381.605 108.067C381.889 108.263 382.119 108.527 382.274 108.835C382.429 109.143 382.504 109.486 382.491 109.831L381.916 126.694C381.905 127.036 381.81 127.37 381.64 127.667C381.47 127.964 381.231 128.215 380.942 128.399L373.275 132.948C372.385 135.389 371.287 137.749 369.992 140.002L371.337 147.347C371.399 147.686 371.375 148.036 371.266 148.363C371.157 148.69 370.967 148.984 370.713 149.217L358.302 160.742C358.046 160.984 357.733 161.156 357.391 161.241C357.05 161.327 356.693 161.323 356.353 161.229L349.144 159.388C346.795 160.524 344.354 161.459 341.848 162.184L336.831 169.51C336.65 169.799 336.401 170.039 336.105 170.209C335.809 170.379 335.476 170.474 335.135 170.484ZM319.461 165.837L334.074 166.334L338.945 159.33C339.214 158.921 339.628 158.629 340.104 158.511C342.845 157.762 345.505 156.74 348.043 155.462C348.486 155.249 348.989 155.197 349.466 155.316L356.285 157.06L367.001 147.074L365.774 140.031C365.679 139.539 365.769 139.029 366.027 138.599C367.474 136.186 368.666 133.63 369.583 130.971C369.738 130.489 370.063 130.08 370.499 129.821L377.834 125.476L378.331 110.863L371.317 105.992C370.948 105.74 370.671 105.374 370.528 104.95C370.528 104.901 370.528 104.843 370.528 104.784C369.777 102.092 368.759 99.4808 367.488 96.9909C367.263 96.5452 367.208 96.0327 367.333 95.5491L369.086 88.6518L359.101 77.9356L352.096 79.2216C351.607 79.3102 351.102 79.2203 350.674 78.9683C348.257 77.5184 345.698 76.3204 343.036 75.393C342.883 75.344 342.736 75.2787 342.598 75.1981C342.317 75.0229 342.083 74.7822 341.916 74.4967L337.522 67.1415L322.909 66.635L318.038 73.6589C317.748 74.0707 317.319 74.3645 316.83 74.487C314.117 75.2284 311.486 76.2435 308.978 77.5167C308.536 77.7423 308.027 77.7978 307.546 77.6726L300.649 75.919L289.933 85.9045L291.219 92.8895C291.295 93.3301 291.23 93.7836 291.034 94.1852L290.936 94.3508C289.487 96.7723 288.296 99.3387 287.38 102.008C287.219 102.466 286.902 102.852 286.484 103.099L279.148 107.454L278.652 122.067L285.676 126.938C286.076 127.212 286.366 127.619 286.494 128.087C287.224 130.823 288.24 133.474 289.524 135.998C289.593 136.141 289.649 136.291 289.689 136.446C289.763 136.766 289.763 137.099 289.689 137.42L287.936 144.239L297.921 154.955L304.877 153.679C305.363 153.59 305.865 153.68 306.29 153.933C308.725 155.38 311.3 156.577 313.976 157.508C314.459 157.651 314.867 157.976 315.116 158.414L319.461 165.837ZM328.491 147.357C328.131 147.357 327.771 147.357 327.41 147.357C319.312 147.214 311.597 143.879 305.946 138.076C300.295 132.274 297.164 124.474 297.236 116.375C297.307 108.275 300.574 100.532 306.327 94.83C312.079 89.128 319.851 85.9288 327.951 85.9288C336.05 85.9288 343.822 89.128 349.575 94.83C355.327 100.532 358.595 108.275 358.666 116.375C358.737 124.474 355.607 132.274 349.955 138.076C344.304 143.879 336.59 147.214 328.491 147.357ZM328.491 89.7916C321.414 89.9136 314.672 92.8263 309.732 97.8956C304.792 102.965 302.055 109.78 302.116 116.858C302.177 123.936 305.032 130.703 310.058 135.686C315.085 140.67 321.876 143.466 328.954 143.466C336.032 143.466 342.824 140.67 347.85 135.686C352.877 130.703 355.731 123.936 355.792 116.858C355.853 109.78 353.116 102.965 348.176 97.8956C343.236 92.8263 336.494 89.9136 329.417 89.7916H328.491Z" fill="#EBEBEB"/>
<path d="M373.996 49.0215L367.001 47.151L365.131 40.1563L367.868 37.4286L370.752 43.4004L376.734 46.2937L373.996 49.0215Z" fill="#E0E0E0"/>
<path d="M374.425 44.3454C374.728 44.0428 374.968 43.6836 375.132 43.2883C375.295 42.893 375.38 42.4693 375.38 42.0414C375.38 41.6135 375.295 41.1898 375.132 40.7945C374.968 40.3992 374.728 40.04 374.425 39.7374C374.123 39.4349 373.764 39.1949 373.368 39.0311C372.973 38.8674 372.549 38.7831 372.121 38.7831C371.693 38.7831 371.27 38.8674 370.874 39.0311C370.479 39.1949 370.12 39.4349 369.817 39.7374L373.295 34.5157L377.952 36.8733L378.975 41.7443L374.425 44.3454Z" fill="#E0E0E0"/>
<path d="M367.313 37.9936L372.438 32.8693L379.413 34.7301L381.293 41.715L376.169 46.8393L369.184 44.9591L367.313 37.9936ZM376.617 42.1827C377.073 41.7261 377.384 41.1446 377.509 40.5116C377.635 39.8786 377.57 39.2226 377.323 38.6265C377.076 38.0303 376.658 37.5208 376.121 37.1624C375.584 36.8039 374.954 36.6126 374.308 36.6126C373.663 36.6126 373.032 36.8039 372.495 37.1624C371.959 37.5208 371.54 38.0303 371.293 38.6265C371.046 39.2226 370.981 39.8786 371.107 40.5116C371.233 41.1446 371.543 41.7261 371.999 42.1827C372.617 42.7881 373.448 43.1256 374.312 43.122C375.177 43.1183 376.005 42.7738 376.617 42.1632V42.1827Z" fill="#F0F0F0"/>
<path d="M88.3431 235.473L92.0938 234.46L93.0972 230.709L91.6359 229.248L90.0869 232.453L86.8721 234.002L88.3431 235.473Z" fill="#E0E0E0"/>
<path d="M88.1297 232.959C87.8366 232.625 87.6817 232.191 87.6964 231.746C87.7111 231.301 87.8944 230.879 88.209 230.564C88.5237 230.25 88.9462 230.066 89.3909 230.052C89.8357 230.037 90.2694 230.192 90.6041 230.485L88.7434 227.689L86.1813 228.936L85.6357 231.566L88.1297 232.959Z" fill="#E0E0E0"/>
<path d="M91.9281 229.54L89.1809 226.793L85.4303 227.767L84.4561 231.518L87.1546 234.294L90.9052 233.32L91.9281 229.54ZM86.9402 231.79C86.7596 231.632 86.6134 231.439 86.5106 231.222C86.4079 231.005 86.3508 230.769 86.3428 230.529C86.3348 230.289 86.3762 230.05 86.4644 229.827C86.5526 229.604 86.6857 229.401 86.8554 229.231C87.0252 229.061 87.228 228.928 87.4513 228.84C87.6745 228.752 87.9135 228.71 88.1535 228.718C88.3934 228.726 88.6291 228.783 88.8461 228.886C89.063 228.989 89.2566 229.135 89.4147 229.316C89.7078 229.651 89.8627 230.084 89.848 230.529C89.8332 230.974 89.65 231.396 89.3353 231.711C89.0207 232.026 88.5982 232.209 88.1535 232.224C87.7087 232.238 87.275 232.083 86.9402 231.79Z" fill="#F0F0F0"/>
<path d="M74.8412 29.8688L77.9586 32.9862C78.3485 33.3694 78.8732 33.5841 79.4199 33.5841C79.9665 33.5841 80.4913 33.3694 80.8812 32.9862C81.262 32.5952 81.4752 32.0708 81.4752 31.5249C81.4752 30.9791 81.262 30.4547 80.8812 30.0637L77.7735 26.956C77.3824 26.5751 76.8581 26.362 76.3122 26.362C75.7663 26.362 75.242 26.5751 74.8509 26.956C74.4694 27.3441 74.2548 27.8661 74.2529 28.4104C74.2511 28.9547 74.4622 29.4781 74.8412 29.8688Z" fill="#F0F0F0"/>
<path d="M72.6483 22.124C73.4617 21.8978 74.3236 21.914 75.1279 22.1708C75.9323 22.4275 76.6441 22.9136 77.1761 23.5692C77.7081 24.2249 78.0371 25.0217 78.1226 25.8617C78.2081 26.7017 78.0464 27.5483 77.6574 28.2978C77.2685 29.0472 76.6691 29.6667 75.933 30.0802C75.1969 30.4938 74.356 30.6834 73.5136 30.6257C72.6712 30.568 71.864 30.2656 71.1911 29.7556C70.5182 29.2456 70.0089 28.5502 69.7257 27.7548C69.5459 27.1932 69.4789 26.6017 69.5286 26.0141C69.5784 25.4266 69.7438 24.8547 70.0154 24.3313C70.2871 23.808 70.6595 23.3435 71.1114 22.9647C71.5632 22.5859 72.0855 22.3001 72.6483 22.124Z" fill="#E0E0E0"/>
<path d="M69.2587 27.2333L69.71 28.4893L78.97 25.1628L78.5187 23.9068L69.2587 27.2333Z" fill="#F0F0F0"/>
<path d="M244.001 362.946C348.32 362.946 432.888 358.009 432.888 351.918C432.888 345.828 348.32 340.89 244.001 340.89C139.682 340.89 55.1143 345.828 55.1143 351.918C55.1143 358.009 139.682 362.946 244.001 362.946Z" fill="#F5F5F5"/>
<path d="M84.9343 63.9559C83.9601 59.6597 84.3888 56.0552 86.2397 53.1131C88.0907 50.1711 91.1107 48.2422 95.4069 47.268C99.7031 46.2938 103.415 46.6835 106.318 48.4955C109.221 50.3075 111.189 53.3664 112.163 57.5555C112.851 60.141 112.908 62.8539 112.329 65.4659C111.762 67.6352 110.566 69.5879 108.89 71.0773C106.899 72.7531 104.51 73.8872 101.954 74.3701C99.4472 75.0355 96.8228 75.1254 94.2768 74.6331C92.0637 74.0953 90.0621 72.9078 88.5291 71.2234C86.6977 69.1693 85.4556 66.6582 84.9343 63.9559ZM93.0591 62.1439C93.6631 64.7938 94.5886 66.5863 95.8356 67.5215C96.4793 67.9507 97.2031 68.2453 97.9635 68.3876C98.724 68.5299 99.5054 68.5169 100.261 68.3494C101.016 68.182 101.73 67.8635 102.359 67.4132C102.988 66.9629 103.519 66.39 103.921 65.729C104.623 64.3748 104.633 62.2219 103.97 59.2895C103.405 56.8151 102.493 55.12 101.233 54.2042C100.598 53.7489 99.8699 53.4417 99.1011 53.3051C98.3323 53.1686 97.5426 53.2062 96.7903 53.4152C96.0373 53.5562 95.326 53.8661 94.7101 54.3217C94.0942 54.7774 93.5897 55.3667 93.2345 56.0455C92.5136 57.4775 92.4454 59.4259 93.0591 62.1439Z" fill="#142949"/>
<path d="M115.982 60.7411C115.636 59.4135 115.574 58.0277 115.801 56.6746C116.027 55.3215 116.537 54.0315 117.297 52.8891C118.149 51.6754 119.232 50.6418 120.484 49.8477C121.736 49.0537 123.133 48.5146 124.594 48.2617C128.406 47.3979 131.537 47.8492 133.985 49.6158C136.046 51.2131 137.447 53.5127 137.921 56.0764C138.395 58.6401 137.91 61.2887 136.557 63.5175C135.037 65.8361 132.563 67.3819 129.134 68.1547C126.492 68.8933 123.673 68.6653 121.184 67.5118C119.853 66.8613 118.691 65.9116 117.789 64.7369C116.886 63.5623 116.268 62.1946 115.982 60.7411ZM123.298 59.0557C123.495 60.4171 124.16 61.6674 125.178 62.5921C125.582 62.8976 126.047 63.1116 126.542 63.2191C127.037 63.3267 127.549 63.3253 128.043 63.215C128.537 63.1047 129.001 62.8881 129.403 62.5803C129.805 62.2726 130.135 61.881 130.371 61.4328C130.881 60.1242 130.929 58.6808 130.507 57.3412C130.302 56.0118 129.645 54.7937 128.647 53.8925C128.259 53.5783 127.804 53.3578 127.318 53.248C126.831 53.1381 126.326 53.142 125.841 53.2593C125.335 53.364 124.86 53.5825 124.452 53.8982C124.043 54.2138 123.712 54.6183 123.483 55.081C122.959 56.3435 122.893 57.75 123.298 59.0557Z" fill="#142949"/>
<path d="M145.198 71.6716L139.227 45.3683L146.046 43.8096L146.689 46.625C147.17 45.5022 147.869 44.4857 148.744 43.6342C149.706 42.8184 150.853 42.2528 152.086 41.9878C153.225 41.678 154.423 41.6602 155.571 41.9361C156.719 42.2119 157.778 42.7725 158.652 43.566C160.577 45.3659 161.884 47.7293 162.383 50.3172C163.104 53.4833 162.89 56.0747 161.76 58.1108C161.222 59.0843 160.479 59.9292 159.583 60.5869C158.686 61.2447 157.657 61.6995 156.567 61.9199C155.517 62.1689 154.429 62.2119 153.362 62.0465C152.339 61.8673 151.364 61.4793 150.498 60.9067L152.563 69.996L145.198 71.6716ZM148.715 53.2982C148.894 54.515 149.502 55.6276 150.43 56.4352C150.802 56.7199 151.233 56.9169 151.692 57.0114C152.151 57.1059 152.625 57.0954 153.08 56.9807C153.501 56.8961 153.898 56.7137 154.236 56.448C154.574 56.1824 154.846 55.8409 155.028 55.4512C155.442 54.232 155.442 52.9101 155.028 51.6908C154.85 50.468 154.263 49.3416 153.362 48.4955C153.028 48.218 152.635 48.021 152.212 47.9197C151.79 47.8183 151.35 47.8153 150.927 47.9109C150.479 48.0076 150.059 48.2041 149.698 48.4858C149.337 48.7675 149.044 49.1271 148.842 49.5379C148.365 50.7387 148.32 52.068 148.715 53.2982Z" fill="#142949"/>
<path d="M165.51 53.873L172.602 51.5447C172.979 52.2303 173.566 52.7767 174.278 53.1034C175.043 53.325 175.853 53.3427 176.627 53.1547C177.401 52.9668 178.112 52.5796 178.691 52.0318C178.852 51.8599 178.97 51.6512 179.032 51.4237C179.095 51.1962 179.102 50.9569 179.051 50.7264C178.993 50.4626 178.856 50.2224 178.66 50.0367C178.464 49.8509 178.217 49.7281 177.95 49.684C176.849 49.5632 175.739 49.5632 174.638 49.684C172.79 49.8411 170.933 49.8411 169.085 49.684C168.004 49.527 166.989 49.0639 166.163 48.3493C165.28 47.5858 164.671 46.5557 164.427 45.4148C164.182 44.274 164.316 43.0847 164.808 42.0268C165.376 40.8949 166.259 39.951 167.351 39.3088C168.905 38.426 170.593 37.804 172.349 37.4676C174.024 37.0128 175.757 36.8028 177.492 36.8441C178.582 36.9143 179.639 37.2486 180.571 37.8183C181.564 38.4882 182.407 39.3574 183.045 40.3707L176.226 42.6211C175.971 42.1135 175.547 41.7105 175.028 41.4813C174.317 41.2271 173.546 41.1931 172.816 41.3838C172.171 41.4738 171.573 41.7713 171.111 42.2314C170.965 42.3882 170.859 42.5785 170.803 42.7857C170.747 42.9929 170.742 43.2106 170.79 43.4199C170.843 43.6503 170.964 43.8592 171.138 44.0192C171.312 44.1792 171.53 44.2828 171.764 44.3162C172.853 44.4426 173.955 44.4196 175.037 44.248C176.916 43.9757 178.822 43.9495 180.707 44.17C181.893 44.3376 183.004 44.849 183.903 45.6411C184.715 46.3777 185.28 47.3475 185.52 48.4175C185.769 49.565 185.678 50.7603 185.257 51.8564C184.742 53.1542 183.845 54.265 182.685 55.0421C180.976 56.1591 179.062 56.9241 177.054 57.2925C173.579 58.0848 170.982 58.153 169.26 57.497C167.584 56.8274 166.237 55.526 165.51 53.873Z" fill="#142949"/>
<path d="M189.3 29.7812H197.298V35.9186L195.827 48.2617H190.878L189.3 35.9381V29.7812ZM189.689 50.1224H197.152V56.7274H189.689V50.1224Z" fill="#142949"/>
<path d="M125.811 113.572H125.636C121.252 111.867 118.631 110.211 117.268 108.214C116.2 108.416 115.095 108.265 114.121 107.785C112.979 107.226 112.032 106.337 111.403 105.233C111.072 105.486 110.683 105.653 110.27 105.716C109.858 105.779 109.437 105.736 109.045 105.593C107.845 105.144 106.82 104.321 106.123 103.245C105.686 103.57 105.144 103.72 104.603 103.664C101.68 103.43 97.7836 97.6631 97.5011 91.5257C97.4982 91.3961 97.5451 91.2704 97.6321 91.1744C97.7191 91.0783 97.8395 91.0193 97.9687 91.0093C98.0327 91.0067 98.0966 91.0168 98.1567 91.0389C98.2168 91.061 98.2719 91.0947 98.319 91.1381C98.366 91.1815 98.404 91.2338 98.4309 91.292C98.4577 91.3501 98.4728 91.413 98.4753 91.4769C98.7481 97.3221 102.479 102.515 104.691 102.69C104.852 102.708 105.014 102.694 105.17 102.649C105.325 102.604 105.47 102.528 105.597 102.427C104.835 101.038 104.356 99.5115 104.189 97.9362C104.022 96.3608 104.169 94.7679 104.622 93.25C105.46 90.3274 106.201 89.1778 107.097 89.3532C108.773 89.7721 108.548 96.1726 107.662 100.352C107.528 101.106 107.25 101.827 106.844 102.476C107.418 103.439 108.285 104.193 109.318 104.629C109.593 104.733 109.893 104.757 110.182 104.697C110.47 104.636 110.735 104.494 110.945 104.288C110.185 102.407 109.971 99.8355 111.062 96.5622C112.426 92.2466 113.01 92.1297 113.312 92.0517C113.426 92.0278 113.544 92.0352 113.654 92.0729C113.763 92.1106 113.861 92.1774 113.936 92.2661C114.842 93.289 113.76 99.9914 112.63 103.304C112.498 103.702 112.315 104.082 112.085 104.434C112.608 105.487 113.459 106.342 114.511 106.869C115.2 107.205 115.967 107.349 116.732 107.288C116.644 107.103 116.566 106.918 116.488 106.723C115.719 104.629 116.098 102.222 117.647 99.3387C118.67 97.439 119.508 96.5428 120.288 96.5428C120.494 96.5455 120.696 96.6076 120.869 96.7215C121.042 96.8355 121.178 96.9966 121.262 97.1857C122.109 98.7542 121.496 103.927 119.82 106.499C119.428 107.089 118.882 107.56 118.242 107.863C119.547 109.577 122.031 111.088 126.035 112.627C126.095 112.648 126.15 112.682 126.197 112.725C126.244 112.768 126.282 112.821 126.308 112.879C126.335 112.937 126.349 113 126.351 113.064C126.352 113.127 126.341 113.191 126.318 113.25C126.28 113.352 126.21 113.438 126.119 113.496C126.027 113.554 125.919 113.581 125.811 113.572ZM120.278 97.5267C120.278 97.5267 119.722 97.5267 118.495 99.8161C117.082 102.427 116.722 104.58 117.394 106.392C117.476 106.616 117.573 106.834 117.686 107.045C118.214 106.827 118.663 106.453 118.972 105.973C120.336 103.888 120.989 99.6017 120.482 97.9261C120.414 97.5852 120.278 97.5267 120.278 97.5267ZM113.283 93.4253C112.756 94.5345 112.319 95.6846 111.978 96.8642C111.23 98.9088 111.102 101.128 111.607 103.245L111.695 102.992C112.718 99.904 113.263 96.6779 113.312 93.4253H113.283ZM106.873 90.3566C106.707 90.5028 106.23 91.1165 105.558 93.4935C104.763 96.1612 105.013 99.0315 106.259 101.521C106.459 101.085 106.606 100.627 106.697 100.157C107.74 95.3737 107.448 91.0483 106.902 90.3566H106.873Z" fill="#142949"/>
<path d="M162.849 164.639C161.292 164.654 159.758 164.254 158.407 163.48C158.296 163.413 158.215 163.305 158.182 163.179C158.149 163.054 158.167 162.92 158.231 162.808C158.264 162.753 158.306 162.705 158.357 162.666C158.408 162.628 158.466 162.601 158.528 162.585C158.59 162.57 158.654 162.567 158.717 162.577C158.779 162.586 158.84 162.609 158.894 162.642C162.372 164.678 166.863 163.256 167.788 161.765C167.855 161.672 167.903 161.566 167.928 161.454C167.953 161.342 167.955 161.225 167.934 161.112C166.156 161.215 164.395 160.713 162.937 159.69C160.453 158.141 160.258 157.674 160.277 157.303C160.282 157.197 160.315 157.094 160.374 157.005C160.432 156.916 160.513 156.844 160.608 156.797C161.583 156.31 165.976 158.326 167.808 159.534C168.027 159.68 168.23 159.85 168.412 160.041C169.131 159.878 169.78 159.488 170.263 158.93C170.534 158.611 170.731 158.235 170.838 157.829H170.643C169.084 157.985 167.525 157.313 165.859 155.774C164.71 154.722 164.271 153.991 164.418 153.416C164.462 153.255 164.551 153.109 164.676 152.997C164.8 152.885 164.954 152.811 165.119 152.783C166.463 152.442 169.795 153.864 171.149 155.355C171.451 155.679 171.666 156.075 171.773 156.504C173.049 155.91 174.393 154.556 175.981 152.345C176.018 152.292 176.065 152.247 176.12 152.213C176.174 152.178 176.234 152.155 176.298 152.144C176.361 152.133 176.426 152.135 176.489 152.149C176.552 152.164 176.611 152.19 176.663 152.228C176.768 152.304 176.838 152.418 176.86 152.545C176.882 152.672 176.853 152.803 176.78 152.91C174.939 155.482 173.4 156.943 171.86 157.537C171.781 158.257 171.485 158.936 171.013 159.486C170.452 160.138 169.714 160.615 168.889 160.859C168.935 161.092 168.935 161.331 168.888 161.564C168.842 161.796 168.749 162.017 168.616 162.213C167.798 163.606 165.44 164.639 162.849 164.639ZM161.982 157.878C162.313 158.122 162.781 158.443 163.453 158.852C164.501 159.559 165.704 160 166.96 160.138C165.392 159.198 163.722 158.44 161.982 157.878ZM165.382 153.738C165.662 154.265 166.05 154.726 166.522 155.092C167.964 156.427 169.279 157.04 170.545 156.884H170.857C170.788 156.582 170.64 156.303 170.428 156.076C169.064 154.537 166.064 153.582 165.382 153.738Z" fill="#142949"/>
<path d="M175.748 163.304L160.57 166.061L146.786 90.834L117.501 96.1531L69.7656 180.908L74.8899 208.877L136.118 197.762L140.307 220.636L169.591 215.297L165.402 192.423L180.58 189.666L175.748 163.304ZM98.933 177.304L124.262 132.909L131.325 171.429L98.933 177.304Z" fill="#3061AD"/>
<path d="M298.001 85.7292C297.54 81.0001 296.493 76.3468 294.883 71.8761C293.228 67.5937 290.928 63.5891 288.064 60.0007C284.673 55.8259 280.462 52.3909 275.692 49.908C270.496 47.0569 263.605 45.0728 255.019 43.9557C237.191 41.6306 223.299 44.7935 213.343 53.4444C203.387 62.0952 196.827 78.6565 193.664 103.128C192.402 112.274 192.075 121.525 192.69 130.737C193.34 139.18 194.892 145.977 197.347 151.127C200.471 158.072 205.399 164.053 211.619 168.448C217.769 172.767 226.212 175.621 236.948 177.011C256.029 179.499 270.178 175.833 279.394 166.013C288.609 156.193 294.714 139.599 297.708 116.231C299.039 106.113 299.138 95.8709 298.001 85.7292Z" fill="#3061AD"/>
<path d="M245.725 167.006C243.377 166.928 240.854 166.714 238.311 166.383C229.387 165.224 222.49 162.963 217.794 159.671C213.112 156.364 209.409 151.854 207.078 146.616L207.029 146.509C205.159 142.612 203.932 137.011 203.396 129.948C202.828 121.464 203.128 112.944 204.292 104.521C207.77 77.5167 214.95 66.2453 220.356 61.5497C226.669 56.0747 235.193 53.6002 246.397 53.9899C248.696 54.0678 251.131 54.2724 253.635 54.5939C260.825 55.5681 266.524 57.1268 270.557 59.3285C274.042 61.1232 277.127 63.6054 279.627 66.6252C281.813 69.3526 283.571 72.398 284.838 75.656C286.133 79.2889 286.97 83.0685 287.332 86.908C288.371 96.2113 288.276 105.606 287.05 114.887C284.351 135.871 279.13 150.62 271.541 158.726C265.91 164.727 257.464 167.493 245.715 167.045L245.725 167.006Z" fill="#142949"/>
<path d="M264.79 86.0117L264.917 82.3195L262.647 81.5791C262.55 80.3303 262.348 79.0919 262.043 77.8772L263.991 76.4548L262.686 72.9867L260.309 73.1815C259.75 72.0669 259.098 71.0013 258.361 69.9959L259.588 67.9404L257.055 65.2419L254.931 66.333C253.981 65.516 252.964 64.7795 251.892 64.1313L252.233 61.7737L248.862 60.2442L247.323 62.0562C246.131 61.67 244.909 61.3832 243.67 61.1989L243.095 58.8901L239.393 58.7635L238.662 61.0236C237.414 61.1235 236.176 61.3255 234.96 61.6276L233.528 59.6792L230.06 60.9749L230.255 63.3519C229.141 63.9114 228.075 64.5631 227.069 65.3003L225.024 64.0631L222.315 66.5862L223.406 68.7197C222.587 69.6694 221.854 70.6898 221.214 71.769L218.857 71.4085L217.318 74.7792L219.139 76.3185C218.744 77.5112 218.457 78.7371 218.282 79.9814L215.964 80.5659L215.837 84.2484L218.107 84.9888C218.202 86.241 218.404 87.4827 218.711 88.7005L216.762 90.1131L218.068 93.5812L220.445 93.3864C220.998 94.5041 221.65 95.5702 222.393 96.572L221.156 98.6275L223.689 101.326L225.813 100.245C226.763 101.059 227.78 101.792 228.852 102.437L228.501 104.794L231.872 106.324L233.421 104.521C234.616 104.906 235.842 105.189 237.084 105.369L237.659 107.688L241.351 107.814L242.082 105.544C243.334 105.449 244.576 105.247 245.793 104.94L247.206 106.889L250.674 105.593L250.489 103.226C251.599 102.659 252.664 102.008 253.675 101.277L255.72 102.505L258.429 99.9817L257.347 97.8482C258.164 96.9018 258.894 95.8846 259.53 94.8087L261.887 95.1594L263.426 91.7887L261.614 90.2495C262.002 89.0585 262.286 87.8362 262.462 86.5962L264.79 86.0117ZM239.851 97.9651C236.965 97.8597 234.176 96.9018 231.834 95.2124C229.493 93.523 227.704 91.1778 226.694 88.4728C225.685 85.7678 225.499 82.8243 226.16 80.0137C226.822 77.2032 228.301 74.6516 230.412 72.6811C232.522 70.7106 235.169 69.4094 238.018 68.9418C240.867 68.4743 243.791 68.8613 246.421 70.054C249.05 71.2467 251.267 73.1916 252.793 75.6433C254.318 78.0951 255.082 80.9436 254.99 83.8295C254.928 85.7531 254.487 87.6455 253.692 89.3982C252.897 91.1509 251.764 92.7293 250.357 94.0427C248.951 95.3561 247.298 96.3788 245.495 97.0519C243.692 97.725 241.774 98.0353 239.851 97.9651Z" fill="#3061AD"/>
<path opacity="0.3" d="M280.163 153.796L280.436 151.302L278.936 150.698C278.933 149.85 278.862 149.002 278.721 148.165L280.075 147.298L279.384 144.892H277.766C277.447 144.109 277.059 143.356 276.607 142.642L277.523 141.317L275.964 139.368L274.474 139.992C273.87 139.394 273.218 138.847 272.525 138.355L272.886 136.777L270.694 135.569L269.544 136.728C268.761 136.406 267.953 136.149 267.128 135.959L266.855 134.371L264.371 134.088L263.758 135.588C262.911 135.592 262.067 135.671 261.234 135.822L260.367 134.439L257.961 135.15V136.767C257.178 137.091 256.425 137.482 255.711 137.936L254.386 136.962L252.437 138.521L253.061 140.011C252.467 140.616 251.923 141.267 251.434 141.96L249.856 141.609L248.658 143.801L249.807 144.941C249.481 145.725 249.223 146.537 249.037 147.367L247.44 147.63L247.177 150.114L248.667 150.737C248.668 151.58 248.743 152.421 248.891 153.251L247.518 154.118L248.219 156.524H249.846C250.171 157.303 250.562 158.052 251.015 158.765L250.041 160.09L251.6 162.038L253.11 161.405C253.709 162.004 254.361 162.549 255.058 163.032L254.717 164.639L256.909 165.837L258.049 164.697C258.833 165.012 259.641 165.263 260.465 165.448L260.747 167.045L263.231 167.318L263.835 165.828C264.697 165.826 265.557 165.755 266.407 165.613L267.274 166.987L269.671 166.285V164.668C270.454 164.339 271.21 163.948 271.931 163.499L273.236 164.473L275.185 162.905L274.552 161.414C275.152 160.81 275.702 160.159 276.198 159.466L277.766 159.817L278.974 157.625L277.825 156.495C278.138 155.71 278.389 154.903 278.575 154.079L280.163 153.796ZM267.625 152.822C267.213 153.576 266.586 154.191 265.824 154.589C265.062 154.987 264.2 155.15 263.345 155.058C262.491 154.966 261.683 154.622 261.023 154.07C260.364 153.518 259.884 152.783 259.642 151.958C259.401 151.133 259.41 150.255 259.668 149.435C259.925 148.615 260.421 147.89 261.091 147.352C261.76 146.813 262.575 146.486 263.431 146.41C264.288 146.335 265.147 146.515 265.901 146.928C266.909 147.483 267.656 148.415 267.979 149.519C268.302 150.624 268.175 151.811 267.625 152.822Z" fill="#3061AD"/>
<path d="M293.967 111.691L291.045 109.685C290.757 108.641 290.366 107.63 289.876 106.665L290.616 103.742L286.408 99.2315L283.485 99.7771C282.558 99.2251 281.579 98.765 280.563 98.4035L278.76 95.364L272.594 95.1594L270.587 98.082C269.542 98.3652 268.53 98.757 267.567 99.251L264.644 98.5009L260.134 102.719L260.679 105.642C260.119 106.565 259.659 107.544 259.306 108.564L256.276 110.367L256.062 116.533L258.984 118.54C259.267 119.591 259.659 120.61 260.153 121.58L259.413 124.502L263.621 129.013L266.544 128.477C267.471 129.028 268.45 129.488 269.466 129.85L271.259 132.88L277.435 133.095L279.432 130.172C280.486 129.886 281.507 129.494 282.482 129.003L285.404 129.743L289.915 125.535L289.379 122.612C289.933 121.686 290.393 120.707 290.753 119.69L293.782 117.887L293.967 111.691ZM274.747 121.063C273.375 121.016 272.049 120.564 270.935 119.763C269.821 118.962 268.97 117.849 268.489 116.564C268.008 115.279 267.918 113.88 268.232 112.545C268.546 111.209 269.249 109.997 270.252 109.061C271.254 108.124 272.512 107.507 273.866 107.286C275.22 107.064 276.61 107.25 277.858 107.818C279.107 108.386 280.159 109.312 280.881 110.479C281.604 111.645 281.964 112.999 281.917 114.371C281.851 116.208 281.059 117.944 279.715 119.199C278.371 120.453 276.584 121.124 274.747 121.063Z" fill="white"/>
<path d="M315.116 62.4654L315.623 61.2477C315.967 61.0536 316.293 60.8286 316.597 60.5755H317.727L319.052 58.6271L318.624 57.5847C318.788 57.2375 318.918 56.8754 319.013 56.5033L319.987 55.6071L319.578 53.3177L318.351 52.8111C318.158 52.4657 317.933 52.1394 317.679 51.8369V50.7069L315.779 49.382L314.727 49.8204C314.342 49.6849 313.943 49.5934 313.538 49.5476L312.642 48.5734L310.362 48.9825L309.846 50.21C309.485 50.3975 309.142 50.6193 308.823 50.8725H307.703L306.378 52.8209L306.807 53.8633C306.676 54.2492 306.584 54.6474 306.534 55.0518L305.56 55.9578L305.969 58.2374L307.196 58.744C307.382 59.0912 307.604 59.4177 307.859 59.7182V60.8385L309.807 62.1634L310.849 61.7348C311.239 61.8614 311.641 61.9495 312.048 61.9978L312.944 62.972L315.116 62.4654ZM310.245 56.1526C310.153 55.6443 310.214 55.1201 310.42 54.6463C310.626 54.1726 310.968 53.7705 311.402 53.4911C311.837 53.2117 312.344 53.0674 312.861 53.0766C313.377 53.0858 313.879 53.248 314.304 53.5426C314.728 53.8373 315.055 54.2513 315.244 54.732C315.433 55.2128 315.475 55.7389 315.365 56.2436C315.255 56.7483 314.998 57.209 314.626 57.5674C314.254 57.9258 313.784 58.1657 313.275 58.2569C312.595 58.3763 311.895 58.2222 311.327 57.8281C310.76 57.4341 310.371 56.8319 310.245 56.1526Z" fill="#3061AD"/>
<path d="M288.433 56.0065L287.683 55.3733C289.29 53.3794 291.277 51.7239 293.528 50.5023L293.986 51.3596C291.845 52.5251 289.957 54.1047 288.433 56.0065Z" fill="#3061AD"/>
<path d="M296.207 50.4633L295.827 49.5671C299.425 48.0037 303.358 47.3738 307.264 47.7356L307.167 48.7098C303.424 48.357 299.653 48.9604 296.207 50.4633Z" fill="#3061AD"/>
<path d="M294.366 57.2048L293.567 56.6592C295.914 53.4898 299.33 51.2783 303.183 50.4341L303.368 51.4083C299.768 52.1945 296.572 54.2525 294.366 57.2048Z" fill="#3061AD"/>
<path d="M229.719 151C229.586 150.996 229.46 150.94 229.368 150.844L227.332 148.74C226.294 148.646 225.267 148.457 224.263 148.175L221.078 149.578C221.008 149.616 220.929 149.636 220.849 149.636C220.769 149.636 220.69 149.616 220.62 149.578L215.281 146.042C215.212 145.996 215.156 145.934 215.119 145.86C215.081 145.787 215.063 145.705 215.067 145.623V142.155C214.415 141.34 213.841 140.466 213.352 139.544L210.615 138.492C210.538 138.462 210.47 138.413 210.418 138.35C210.365 138.287 210.329 138.212 210.313 138.131L209.046 131.857C209.03 131.777 209.033 131.694 209.057 131.616C209.081 131.537 209.124 131.466 209.183 131.409L211.287 129.373C211.388 128.336 211.577 127.309 211.852 126.304L210.449 123.119C210.411 123.049 210.391 122.97 210.391 122.89C210.391 122.81 210.411 122.731 210.449 122.661L213.986 117.322C214.03 117.252 214.092 117.195 214.165 117.157C214.239 117.12 214.322 117.102 214.405 117.108L217.873 117.157C218.685 116.502 219.56 115.928 220.484 115.442L221.545 112.705C221.573 112.629 221.62 112.561 221.682 112.508C221.743 112.455 221.817 112.419 221.896 112.403L228.17 111.136C228.25 111.119 228.333 111.122 228.412 111.146C228.49 111.17 228.561 111.213 228.618 111.273L230.654 113.377C231.695 113.472 232.726 113.661 233.733 113.942L236.908 112.539C236.98 112.501 237.061 112.481 237.142 112.481C237.224 112.481 237.304 112.501 237.376 112.539L242.705 116.075C242.772 116.123 242.828 116.185 242.867 116.258C242.906 116.331 242.927 116.412 242.929 116.494L242.871 119.962C243.525 120.777 244.102 121.651 244.595 122.573L247.323 123.635C247.399 123.663 247.466 123.71 247.519 123.771C247.572 123.833 247.608 123.907 247.625 123.986L248.901 130.26C248.916 130.34 248.911 130.422 248.887 130.5C248.864 130.578 248.822 130.65 248.764 130.708L246.65 132.754C246.553 133.788 246.364 134.812 246.085 135.813L247.488 138.998C247.527 139.07 247.547 139.15 247.547 139.232C247.547 139.314 247.527 139.394 247.488 139.466L244.001 144.756C243.955 144.822 243.894 144.876 243.822 144.913C243.751 144.951 243.672 144.97 243.591 144.97L240.114 144.921C239.298 145.567 238.428 146.141 237.512 146.636L236.451 149.373C236.422 149.451 236.373 149.519 236.31 149.572C236.247 149.625 236.171 149.66 236.09 149.675L229.816 151H229.719ZM224.234 147.103C224.279 147.095 224.326 147.095 224.371 147.103C225.423 147.41 226.503 147.609 227.595 147.698C227.712 147.712 227.821 147.763 227.907 147.844L229.855 149.89L235.603 148.73L236.636 146.061C236.684 145.953 236.766 145.864 236.869 145.808C237.843 145.305 238.76 144.701 239.607 144.006C239.696 143.93 239.812 143.892 239.928 143.898L243.309 143.947L246.543 139.076L245.179 135.978C245.141 135.871 245.141 135.754 245.179 135.647C245.481 134.594 245.68 133.514 245.774 132.422C245.784 132.304 245.835 132.194 245.92 132.111L247.966 130.162L246.806 124.414L244.147 123.382C244.032 123.34 243.938 123.257 243.884 123.148C243.378 122.176 242.774 121.259 242.081 120.411C242.012 120.321 241.974 120.212 241.974 120.099V116.709L237.103 113.474L234.015 114.838C233.905 114.878 233.784 114.878 233.674 114.838C232.618 114.533 231.535 114.334 230.44 114.244C230.323 114.23 230.213 114.179 230.128 114.098L228.18 112.052L222.432 113.221L221.409 115.929C221.368 116.041 221.289 116.134 221.185 116.192C220.208 116.694 219.287 117.298 218.438 117.995C218.396 118.033 218.346 118.062 218.293 118.08C218.239 118.098 218.182 118.106 218.126 118.102L214.745 118.053L211.501 122.924L212.865 126.022C212.896 126.087 212.913 126.159 212.913 126.231C212.913 126.304 212.896 126.375 212.865 126.441C212.577 127.469 212.387 128.523 212.3 129.587C212.291 129.706 212.239 129.817 212.154 129.899L210.108 131.848L211.277 137.595L213.927 138.628C214.045 138.677 214.142 138.767 214.2 138.881C214.702 139.847 215.303 140.757 215.992 141.599C216.065 141.687 216.103 141.798 216.1 141.911V145.301L220.971 148.536L224.069 147.172C224.119 147.139 224.175 147.116 224.234 147.103ZM229.017 143.947C226.673 143.945 224.372 143.308 222.361 142.103C220.349 140.897 218.702 139.17 217.593 137.103C216.485 135.037 215.958 132.709 216.067 130.366C216.176 128.024 216.918 125.755 218.214 123.801C219.453 121.926 221.158 120.404 223.161 119.386C225.164 118.367 227.398 117.886 229.643 117.989C231.888 118.092 234.068 118.776 235.97 119.974C237.871 121.172 239.429 122.843 240.491 124.824C241.554 126.805 242.084 129.027 242.029 131.274C241.975 133.521 241.339 135.715 240.183 137.642C239.026 139.57 237.389 141.164 235.432 142.269C233.475 143.374 231.265 143.952 229.017 143.947ZM219.032 124.337C217.721 126.315 217.025 128.638 217.034 131.011C217.043 133.385 217.755 135.703 219.081 137.671C220.407 139.64 222.287 141.172 224.483 142.072C226.679 142.972 229.093 143.202 231.419 142.73C233.745 142.259 235.88 141.109 237.552 139.424C239.225 137.74 240.36 135.598 240.816 133.268C241.271 130.939 241.025 128.527 240.109 126.337C239.194 124.147 237.649 122.278 235.671 120.966C234.36 120.088 232.887 119.478 231.338 119.173C229.79 118.867 228.196 118.871 226.649 119.184C225.102 119.497 223.633 120.114 222.325 120.998C221.018 121.883 219.899 123.017 219.032 124.337Z" fill="white"/>
<path d="M415.293 172.092L399.998 170.026L410.111 94.2242L380.612 90.2495L309.057 156.125L305.297 184.308L366.954 192.628L363.875 215.687L393.374 219.662L396.452 196.612L411.747 198.677L415.293 172.092ZM337.923 161.648L375.682 127.23L370.5 166.042L337.923 161.648Z" fill="#3061AD"/>
<path d="M384.412 218.941H384.285C384.159 218.917 384.047 218.844 383.974 218.738C383.901 218.633 383.873 218.502 383.895 218.376L406.692 93.7371C406.718 93.6119 406.791 93.5016 406.896 93.429C407.001 93.3564 407.13 93.3272 407.257 93.3474C407.383 93.3711 407.495 93.4438 407.568 93.5496C407.641 93.6555 407.669 93.7859 407.646 93.9124L384.899 218.541C384.876 218.654 384.815 218.755 384.727 218.828C384.638 218.901 384.527 218.941 384.412 218.941Z" fill="#142949"/>
<path d="M404.577 95.8316C404.569 96.0435 404.477 96.2436 404.322 96.3879C404.167 96.5322 403.961 96.609 403.749 96.6012C403.537 96.5935 403.337 96.5019 403.192 96.3466C403.048 96.1913 402.971 95.985 402.979 95.7732C402.987 95.5613 403.078 95.3612 403.234 95.2168C403.389 95.0725 403.595 94.9958 403.807 95.0035C404.019 95.0113 404.219 95.1029 404.363 95.2582C404.508 95.4135 404.584 95.6197 404.577 95.8316Z" fill="#142949"/>
<path d="M401.332 112.685C401.327 112.843 401.274 112.996 401.182 113.124C401.089 113.252 400.961 113.349 400.812 113.404C400.664 113.459 400.503 113.469 400.35 113.433C400.196 113.396 400.057 113.315 399.949 113.199C399.842 113.084 399.771 112.939 399.746 112.783C399.72 112.627 399.742 112.467 399.808 112.323C399.873 112.18 399.98 112.059 400.115 111.976C400.249 111.893 400.405 111.851 400.563 111.857C400.668 111.861 400.771 111.885 400.866 111.929C400.962 111.973 401.048 112.035 401.119 112.112C401.191 112.189 401.246 112.279 401.283 112.377C401.32 112.476 401.336 112.58 401.332 112.685Z" fill="#142949"/>
<path d="M398.088 129.568C398.085 129.673 398.06 129.776 398.017 129.872C397.973 129.967 397.911 130.053 397.834 130.124C397.757 130.196 397.667 130.252 397.568 130.288C397.47 130.325 397.365 130.341 397.26 130.338C397.156 130.335 397.053 130.312 396.958 130.269C396.862 130.227 396.776 130.165 396.705 130.089C396.633 130.013 396.577 129.924 396.54 129.826C396.504 129.728 396.487 129.624 396.491 129.519C396.493 129.414 396.517 129.309 396.56 129.213C396.603 129.116 396.665 129.029 396.742 128.956C396.819 128.884 396.91 128.828 397.009 128.79C397.108 128.753 397.213 128.736 397.319 128.74C397.53 128.75 397.729 128.842 397.872 128.997C398.016 129.152 398.094 129.357 398.088 129.568Z" fill="#142949"/>
<path d="M391.698 147.104C391.677 147.299 391.584 147.479 391.437 147.611C391.291 147.742 391.101 147.814 390.904 147.814C390.708 147.814 390.518 147.742 390.371 147.611C390.225 147.479 390.132 147.299 390.11 147.104C390.098 146.992 390.109 146.879 390.143 146.772C390.178 146.665 390.234 146.566 390.309 146.483C390.384 146.399 390.476 146.332 390.578 146.286C390.681 146.24 390.792 146.217 390.904 146.217C391.017 146.217 391.128 146.24 391.23 146.286C391.333 146.332 391.425 146.399 391.499 146.483C391.574 146.566 391.631 146.665 391.665 146.772C391.699 146.879 391.711 146.992 391.698 147.104Z" fill="#142949"/>
<path d="M391.591 163.246C391.589 163.351 391.565 163.455 391.522 163.551C391.479 163.647 391.417 163.734 391.34 163.805C391.262 163.877 391.172 163.933 391.073 163.969C390.974 164.005 390.868 164.021 390.763 164.016C390.605 164.01 390.453 163.957 390.325 163.865C390.197 163.772 390.099 163.644 390.044 163.496C389.989 163.347 389.979 163.186 390.016 163.033C390.052 162.879 390.133 162.74 390.249 162.632C390.365 162.525 390.51 162.454 390.666 162.429C390.822 162.403 390.982 162.425 391.125 162.491C391.269 162.556 391.39 162.663 391.473 162.798C391.556 162.932 391.597 163.088 391.591 163.246Z" fill="#142949"/>
<path d="M388.347 180.099C388.343 180.258 388.293 180.411 388.201 180.541C388.11 180.67 387.982 180.769 387.834 180.826C387.686 180.882 387.524 180.894 387.37 180.858C387.216 180.823 387.075 180.742 386.967 180.627C386.858 180.511 386.787 180.366 386.761 180.21C386.735 180.054 386.756 179.893 386.821 179.749C386.887 179.605 386.994 179.484 387.128 179.4C387.263 179.317 387.42 179.275 387.578 179.281C387.788 179.289 387.987 179.379 388.131 179.532C388.275 179.685 388.353 179.889 388.347 180.099Z" fill="#142949"/>
<path d="M385.103 196.953C385.095 197.166 385.004 197.367 384.849 197.513C384.694 197.659 384.488 197.738 384.275 197.732C384.17 197.729 384.067 197.704 383.971 197.661C383.876 197.617 383.79 197.555 383.719 197.478C383.647 197.401 383.591 197.311 383.555 197.212C383.518 197.114 383.502 197.009 383.505 196.904C383.509 196.799 383.532 196.696 383.576 196.601C383.619 196.505 383.68 196.419 383.757 196.347C383.833 196.275 383.923 196.219 384.021 196.181C384.119 196.144 384.224 196.127 384.329 196.13C384.434 196.133 384.537 196.157 384.632 196.2C384.728 196.243 384.814 196.305 384.886 196.381C384.958 196.458 385.014 196.547 385.052 196.646C385.089 196.744 385.106 196.848 385.103 196.953Z" fill="#142949"/>
<path d="M381.849 213.816C381.843 213.974 381.791 214.127 381.698 214.255C381.606 214.383 381.477 214.48 381.329 214.535C381.181 214.59 381.02 214.6 380.866 214.564C380.713 214.527 380.573 214.446 380.466 214.331C380.358 214.215 380.287 214.07 380.262 213.914C380.237 213.758 380.259 213.598 380.324 213.454C380.39 213.311 380.497 213.19 380.631 213.107C380.766 213.024 380.922 212.983 381.079 212.988C381.185 212.991 381.289 213.014 381.385 213.058C381.481 213.101 381.567 213.163 381.639 213.24C381.711 213.317 381.766 213.408 381.802 213.507C381.838 213.606 381.854 213.711 381.849 213.816Z" fill="#142949"/>
<path d="M390.899 147.542C390.789 147.542 390.683 147.504 390.598 147.435C390.512 147.366 390.454 147.269 390.431 147.162C390.417 147.099 390.415 147.034 390.426 146.971C390.437 146.908 390.46 146.847 390.495 146.793C390.529 146.738 390.574 146.691 390.626 146.654C390.679 146.617 390.739 146.591 390.801 146.577L393.217 146.061C393.281 146.047 393.346 146.045 393.41 146.057C393.474 146.068 393.535 146.093 393.59 146.128C393.644 146.163 393.691 146.209 393.727 146.263C393.764 146.317 393.789 146.377 393.802 146.441C393.815 146.504 393.815 146.568 393.803 146.631C393.791 146.694 393.766 146.754 393.731 146.807C393.696 146.861 393.65 146.906 393.597 146.942C393.544 146.978 393.485 147.003 393.422 147.016L391.006 147.532L390.899 147.542Z" fill="#142949"/>
<path d="M398.975 138.57C397.826 141.55 396.85 144.595 396.053 147.688C395.322 151.127 395.283 158.823 395.283 158.823" fill="#142949"/>
<path d="M395.284 159.31C395.155 159.305 395.032 159.251 394.942 159.159C394.851 159.066 394.799 158.943 394.797 158.813C394.797 158.502 394.855 151.02 395.586 147.591C396.379 144.47 397.355 141.4 398.509 138.394C398.528 138.33 398.561 138.271 398.604 138.22C398.648 138.169 398.701 138.127 398.761 138.098C398.822 138.069 398.887 138.052 398.954 138.049C399.021 138.046 399.088 138.057 399.15 138.082C399.213 138.106 399.27 138.143 399.317 138.19C399.365 138.237 399.402 138.293 399.427 138.356C399.452 138.418 399.464 138.485 399.461 138.552C399.459 138.619 399.443 138.684 399.415 138.745C398.266 141.703 397.291 144.725 396.492 147.795C395.781 151.146 395.732 158.745 395.722 158.823C395.723 158.944 395.678 159.061 395.597 159.151C395.516 159.241 395.405 159.298 395.284 159.31Z" fill="#142949"/>
<path d="M217.161 243.393C218.515 221.571 216.031 181.892 257.054 187.153C301.02 192.774 288.443 244.192 288.443 244.192L217.161 243.393Z" fill="#142949"/>
<path d="M245.471 230.28C255.36 230.28 263.377 222.264 263.377 212.375C263.377 202.486 255.36 194.469 245.471 194.469C235.582 194.469 227.565 202.486 227.565 212.375C227.565 222.264 235.582 230.28 245.471 230.28Z" fill="white"/>
<path d="M247.828 194.498C239.343 193.056 230.293 199.301 229.387 205.633L263.006 208.731C261.818 201.512 254.55 195.648 247.828 194.498Z" fill="#142949"/>
<path d="M259.178 211.926C258.934 216.612 256.382 220.285 253.479 220.129C250.576 219.973 248.413 216.067 248.608 211.361C248.803 206.656 251.404 203.003 254.307 203.159C257.21 203.315 259.412 207.25 259.178 211.926Z" fill="#142949"/>
<path d="M245.471 231.254C241.737 231.254 238.086 230.147 234.982 228.073C231.877 225.998 229.457 223.049 228.028 219.6C226.599 216.15 226.225 212.354 226.954 208.691C227.682 205.029 229.48 201.665 232.121 199.024C234.761 196.384 238.125 194.586 241.787 193.857C245.45 193.129 249.246 193.503 252.696 194.932C256.146 196.361 259.094 198.781 261.169 201.885C263.243 204.99 264.351 208.64 264.351 212.375C264.345 217.38 262.355 222.179 258.815 225.719C255.276 229.259 250.476 231.249 245.471 231.254ZM245.471 195.453C242.122 195.453 238.848 196.446 236.063 198.307C233.278 200.168 231.108 202.813 229.827 205.907C228.546 209.002 228.211 212.406 228.865 215.691C229.519 218.976 231.133 221.993 233.502 224.36C235.871 226.728 238.888 228.339 242.174 228.992C245.459 229.644 248.863 229.307 251.957 228.024C255.051 226.741 257.694 224.57 259.553 221.784C261.413 218.998 262.404 215.724 262.402 212.375C262.397 207.887 260.611 203.584 257.437 200.411C254.262 197.239 249.959 195.455 245.471 195.453Z" fill="#3061AD"/>
<path opacity="0.3" d="M283.445 242.847H283.328C283.266 242.834 283.206 242.808 283.154 242.77C283.102 242.733 283.058 242.686 283.024 242.632C282.99 242.577 282.968 242.516 282.958 242.453C282.949 242.39 282.952 242.325 282.968 242.263C282.968 242.136 286.105 228.926 282.88 215.57C282.849 215.441 282.871 215.305 282.94 215.191C283.009 215.078 283.121 214.997 283.25 214.966C283.379 214.935 283.516 214.957 283.629 215.026C283.742 215.095 283.823 215.207 283.854 215.336C287.137 228.975 283.971 242.36 283.942 242.487C283.913 242.595 283.848 242.69 283.757 242.755C283.667 242.821 283.557 242.853 283.445 242.847Z" fill="white"/>
<path opacity="0.3" d="M280.727 208.244C280.634 208.243 280.542 208.216 280.463 208.166C280.384 208.116 280.32 208.045 280.279 207.961C279.068 205.285 277.516 202.777 275.661 200.499C275.581 200.399 275.542 200.272 275.555 200.144C275.568 200.016 275.631 199.899 275.729 199.817C275.779 199.776 275.837 199.745 275.898 199.725C275.96 199.706 276.025 199.7 276.09 199.706C276.154 199.713 276.216 199.732 276.273 199.762C276.33 199.793 276.381 199.835 276.421 199.885C278.322 202.229 279.916 204.806 281.165 207.552C281.193 207.61 281.209 207.672 281.212 207.736C281.216 207.8 281.206 207.863 281.184 207.923C281.162 207.983 281.129 208.038 281.086 208.085C281.042 208.132 280.99 208.169 280.932 208.195C280.867 208.225 280.798 208.242 280.727 208.244Z" fill="white"/>
<path d="M125.86 345.761H125.499C124.207 345.725 122.983 345.177 122.095 344.238C121.207 343.299 120.728 342.046 120.765 340.754C120.801 339.462 121.349 338.238 122.288 337.35C123.227 336.462 124.48 335.983 125.772 336.019H125.86C128.675 336.019 135.446 332.6 149.611 310.271C149.987 309.678 150.486 309.174 151.076 308.792C151.665 308.41 152.33 308.16 153.025 308.059C153.72 307.958 154.428 308.009 155.102 308.208C155.775 308.406 156.398 308.748 156.927 309.21C168.051 318.772 180.183 327.095 193.108 334.032C193.707 334.304 194.243 334.694 194.687 335.179C195.13 335.664 195.471 336.234 195.688 336.854C195.906 337.474 195.995 338.132 195.952 338.788C195.909 339.443 195.733 340.084 195.436 340.67C195.138 341.256 194.726 341.776 194.222 342.198C193.719 342.62 193.135 342.936 192.506 343.127C191.877 343.318 191.216 343.38 190.563 343.308C189.91 343.237 189.278 343.034 188.705 342.712C176.692 336.329 165.336 328.778 154.803 320.169C142.928 338.046 134.121 345.761 125.86 345.761Z" fill="#142949"/>
<path d="M156.001 308.333H155.582C154.817 308.222 154.126 307.812 153.663 307.193C153.199 306.574 152.999 305.796 153.108 305.03C153.8 300.159 152.942 282.01 146.795 267.884C146.522 267.26 146.476 266.56 146.665 265.905C146.854 265.251 147.265 264.683 147.828 264.299C161.174 255.21 189.601 254.119 190.809 254.08C191.193 254.067 191.576 254.13 191.935 254.265C192.295 254.4 192.624 254.605 192.904 254.867C193.185 255.129 193.411 255.444 193.57 255.794C193.728 256.144 193.816 256.521 193.829 256.905C193.842 257.289 193.779 257.671 193.644 258.031C193.509 258.39 193.304 258.72 193.042 259C192.78 259.281 192.465 259.507 192.115 259.665C191.765 259.824 191.388 259.912 191.004 259.925C190.741 259.925 165.889 260.899 153.127 267.913C158.563 281.981 159.801 299.507 158.895 305.849C158.79 306.54 158.44 307.172 157.909 307.628C157.378 308.083 156.701 308.334 156.001 308.333Z" fill="#142949"/>
<path d="M160.911 304.553C158.963 299.964 150.195 300.481 145.061 304.417C142.314 306.511 138.592 312.834 138.241 315.133C138.125 315.679 138.142 316.245 138.292 316.783C138.443 317.322 138.722 317.815 139.105 318.221C139.489 318.628 139.965 318.935 140.493 319.116C141.022 319.298 141.586 319.348 142.138 319.263C145.499 318.971 150.107 314.09 150.107 314.09C147.038 317.101 151.003 319.224 156.927 314.87C160.161 312.444 163.083 309.687 160.911 304.553Z" fill="#3061AD"/>
<path d="M328.472 244.679C328.427 244.689 328.381 244.689 328.336 244.679C328.273 244.662 328.215 244.633 328.165 244.593C328.114 244.553 328.072 244.504 328.041 244.447C328.01 244.391 327.991 244.329 327.985 244.265C327.978 244.201 327.985 244.136 328.004 244.075C329.3 239.555 330.713 236.798 332.573 235.307C332.282 234.259 332.336 233.145 332.729 232.131C333.183 230.947 333.985 229.929 335.028 229.209C334.745 228.902 334.543 228.529 334.443 228.123C334.342 227.718 334.346 227.294 334.454 226.89C334.806 225.67 335.536 224.592 336.538 223.812C336.177 223.407 335.979 222.883 335.983 222.341C335.983 219.418 341.351 215.015 347.44 214.177C347.569 214.159 347.7 214.193 347.804 214.271C347.908 214.35 347.977 214.467 347.995 214.596C348.013 214.725 347.979 214.856 347.9 214.96C347.822 215.064 347.705 215.133 347.576 215.151C341.789 215.94 336.938 220.129 336.957 222.341C336.955 222.67 337.081 222.988 337.308 223.227C338.618 222.338 340.093 221.72 341.645 221.407C343.197 221.094 344.796 221.094 346.348 221.405C349.339 221.98 350.557 222.613 350.421 223.519C350.148 225.224 343.786 225.585 339.519 225.078C338.755 225.009 338.011 224.794 337.327 224.445C336.409 225.099 335.725 226.031 335.379 227.104C335.295 227.388 335.296 227.69 335.381 227.974C335.466 228.258 335.631 228.511 335.856 228.702C337.668 227.728 340.211 227.377 343.572 228.118C347.985 229.092 348.151 229.628 348.258 229.949C348.292 230.063 348.295 230.183 348.266 230.298C348.237 230.413 348.177 230.518 348.092 230.602C347.167 231.576 340.396 231.118 336.996 230.28C336.586 230.187 336.189 230.039 335.817 229.842C334.811 230.453 334.037 231.382 333.616 232.482C333.334 233.194 333.257 233.969 333.392 234.723C333.565 234.619 333.744 234.525 333.927 234.44C335.944 233.466 338.38 233.641 341.39 234.927C343.338 235.775 344.312 236.535 344.41 237.304C344.414 237.502 344.365 237.697 344.267 237.868C344.169 238.04 344.027 238.181 343.855 238.278C342.364 239.253 337.162 239.116 334.454 237.674C333.831 237.336 333.312 236.834 332.953 236.223C331.365 237.684 330.079 240.285 328.91 244.367C328.875 244.456 328.815 244.532 328.737 244.587C328.659 244.643 328.567 244.674 328.472 244.679ZM333.752 235.59C334.023 236.094 334.437 236.507 334.941 236.778C337.142 237.947 341.468 238.21 343.085 237.558C343.416 237.421 343.465 237.314 343.465 237.314C343.465 237.314 343.416 236.768 341.029 235.745C338.302 234.576 336.158 234.411 334.376 235.239C334.161 235.343 333.952 235.46 333.752 235.59ZM337.006 229.189L337.249 229.257C340.422 229.988 343.687 230.235 346.933 229.988C345.782 229.561 344.595 229.235 343.387 229.014C341.289 228.445 339.07 228.506 337.006 229.189ZM338.233 223.714C338.683 223.875 339.151 223.98 339.627 224.026C344.498 224.601 348.774 223.929 349.368 223.315C349.203 223.169 348.55 222.75 346.134 222.292C343.415 221.75 340.592 222.258 338.233 223.714Z" fill="#142949"/>
<path d="M201.651 344.134C202.294 343.93 202.08 343.306 201.359 343.306H188.168C163.054 340.647 145.508 344.212 156.565 345.05C167.623 345.888 155.786 345.713 147.71 348.772C139.634 351.831 207.769 352.6 213.955 348.772C219.645 345.245 192.747 346.989 201.651 344.134Z" fill="#142949"/>
<path d="M296.09 348.021L181.33 344.212L176.566 232.94L312.087 235.97L296.09 348.021Z" fill="#3061AD"/>
<path d="M217.161 345.888C217.038 345.888 216.92 345.842 216.83 345.759C216.739 345.676 216.684 345.562 216.674 345.44L207.478 233.68C207.469 233.552 207.512 233.425 207.595 233.327C207.679 233.228 207.797 233.167 207.926 233.154C208.054 233.148 208.179 233.191 208.277 233.275C208.375 233.358 208.437 233.475 208.452 233.602L217.697 345.362C217.702 345.426 217.695 345.49 217.675 345.552C217.655 345.613 217.624 345.669 217.582 345.718C217.541 345.767 217.49 345.807 217.432 345.836C217.375 345.866 217.313 345.883 217.249 345.888H217.161Z" fill="#142949"/>
<path d="M296.09 348.022L326.933 343.326L336.646 239.857L312.086 235.97L296.09 348.022Z" fill="#3061AD"/>
<path opacity="0.2" d="M296.09 348.022L326.933 343.326L336.646 239.857L312.086 235.97L296.09 348.022Z" fill="black"/>
<path d="M191.13 322.77L188.305 256.652C188.235 255.018 188.501 253.388 189.087 251.862C189.672 250.335 190.565 248.945 191.709 247.777C192.853 246.609 194.224 245.689 195.738 245.072C197.252 244.455 198.877 244.156 200.511 244.192L286.299 246.14C287.988 246.178 289.65 246.574 291.175 247.302C292.7 248.029 294.054 249.071 295.147 250.36C296.239 251.649 297.046 253.155 297.515 254.778C297.983 256.402 298.101 258.106 297.863 259.779L288.355 326.355C287.943 329.271 286.47 331.933 284.217 333.829C281.965 335.726 279.091 336.724 276.148 336.633L202.703 334.198C199.688 334.105 196.82 332.875 194.674 330.756C192.527 328.636 191.261 325.784 191.13 322.77Z" fill="#142949"/>
<path d="M200.405 264.484L213.674 264.903L213.566 268.323L205.256 268.06L205.179 270.612L212.884 270.855L212.777 274.129L205.071 273.876L204.974 277.042L213.518 277.314L213.401 280.938L199.889 280.51L200.405 264.484Z" fill="white"/>
<path d="M216.138 281.026L216.644 265.001L224.905 265.264C226.09 265.258 227.269 265.428 228.403 265.77C229.207 266.039 229.894 266.576 230.351 267.29C230.69 267.81 230.918 268.394 231.021 269.007C231.123 269.619 231.099 270.245 230.949 270.848C230.799 271.45 230.527 272.015 230.149 272.507C229.772 273 229.296 273.409 228.754 273.71C228.2 273.995 227.605 274.192 226.99 274.294C227.443 274.44 227.873 274.65 228.266 274.918C228.551 275.182 228.805 275.476 229.026 275.795C229.277 276.098 229.499 276.424 229.689 276.769L231.939 281.494L226.347 281.309L223.853 276.33C223.655 275.855 223.364 275.424 222.996 275.064C222.646 274.811 222.229 274.669 221.798 274.655H221.359L221.155 281.153L216.138 281.026ZM221.418 271.654L223.503 271.723C223.945 271.696 224.385 271.634 224.818 271.537C225.144 271.488 225.439 271.317 225.646 271.06C225.857 270.8 225.976 270.479 225.987 270.144C226.005 269.922 225.974 269.698 225.895 269.489C225.815 269.28 225.69 269.091 225.529 268.936C224.985 268.585 224.343 268.418 223.697 268.459L221.515 268.391L221.418 271.654Z" fill="white"/>
<path d="M233.557 281.542L234.063 265.517L242.315 265.78C243.499 265.773 244.678 265.944 245.812 266.287C246.618 266.553 247.306 267.09 247.76 267.806C248.255 268.587 248.487 269.505 248.423 270.427C248.426 271.204 248.218 271.968 247.822 272.637C247.426 273.306 246.856 273.855 246.172 274.226C245.618 274.51 245.023 274.707 244.409 274.811C244.859 274.956 245.286 275.166 245.676 275.434C245.967 275.69 246.225 275.982 246.445 276.301C246.694 276.606 246.916 276.932 247.108 277.275L249.358 281.991L243.766 281.815L241.272 276.837C241.073 276.362 240.782 275.932 240.415 275.571C240.067 275.308 239.643 275.164 239.207 275.161H238.778L238.564 281.669L233.557 281.542ZM238.827 272.171L240.922 272.229C241.364 272.212 241.805 272.154 242.237 272.054C242.561 272.006 242.854 271.835 243.055 271.576C243.273 271.321 243.394 270.997 243.396 270.661C243.417 270.439 243.388 270.215 243.31 270.005C243.233 269.796 243.109 269.607 242.948 269.453C242.405 269.093 241.756 268.925 241.107 268.975L238.934 268.907L238.827 272.171Z" fill="white"/>
<path d="M250.157 274.1C250.081 272.981 250.255 271.86 250.664 270.817C251.074 269.774 251.71 268.834 252.526 268.066C253.341 267.297 254.317 266.719 255.383 266.373C256.449 266.026 257.579 265.92 258.691 266.062C259.813 266.025 260.931 266.214 261.978 266.617C263.026 267.021 263.982 267.63 264.789 268.41C265.51 269.24 266.054 270.208 266.389 271.254C266.724 272.301 266.842 273.405 266.737 274.499C266.745 276.091 266.371 277.661 265.646 279.078C264.99 280.237 264.007 281.179 262.821 281.786C261.423 282.454 259.876 282.75 258.33 282.643C256.789 282.656 255.264 282.323 253.868 281.669C252.68 281.024 251.71 280.041 251.082 278.844C250.345 277.377 250.025 275.736 250.157 274.1ZM255.106 274.275C254.959 275.503 255.238 276.744 255.895 277.792C256.202 278.135 256.575 278.412 256.992 278.608C257.408 278.803 257.86 278.913 258.32 278.93C258.78 278.948 259.239 278.872 259.669 278.708C260.099 278.545 260.492 278.296 260.824 277.977C261.546 276.883 261.889 275.582 261.798 274.275C261.929 273.101 261.643 271.918 260.99 270.933C260.694 270.593 260.329 270.32 259.919 270.134C259.509 269.947 259.063 269.851 258.613 269.852C258.158 269.819 257.702 269.89 257.278 270.059C256.855 270.228 256.475 270.49 256.167 270.826C255.43 271.821 255.055 273.038 255.106 274.275Z" fill="white"/>
<path d="M269.241 282.721L269.748 266.686L277.999 266.949C279.183 266.947 280.362 267.118 281.497 267.456C282.298 267.729 282.985 268.264 283.445 268.975C283.937 269.757 284.169 270.674 284.107 271.596C284.112 272.375 283.905 273.141 283.509 273.812C283.113 274.482 282.542 275.033 281.857 275.405C281.3 275.681 280.706 275.874 280.094 275.98C280.544 276.128 280.971 276.341 281.36 276.613C281.651 276.869 281.91 277.16 282.13 277.48C282.381 277.783 282.603 278.109 282.792 278.454L285.043 283.179L279.451 283.004L276.957 278.016C276.758 277.544 276.467 277.116 276.1 276.759C275.75 276.498 275.328 276.351 274.892 276.34H274.463L274.249 282.848L269.241 282.721ZM274.512 273.34L276.606 273.408C277.049 273.391 277.489 273.332 277.921 273.233C278.244 273.181 278.536 273.01 278.74 272.755C278.97 272.484 279.091 272.137 279.081 271.781C279.102 271.56 279.072 271.338 278.995 271.13C278.917 270.923 278.793 270.735 278.632 270.583C278.089 270.223 277.441 270.055 276.791 270.105L274.619 270.037L274.512 273.34Z" fill="white"/>
<path d="M277.123 309.95C276.94 309.953 276.759 309.918 276.591 309.846C276.423 309.773 276.272 309.666 276.149 309.531L267.81 300.403L258.808 308.625C258.559 308.854 258.229 308.974 257.891 308.959C257.553 308.944 257.234 308.796 257.006 308.547L248.667 299.419L239.665 307.641C239.416 307.87 239.086 307.99 238.748 307.975C238.41 307.961 238.092 307.812 237.863 307.563L229.514 298.435L220.522 306.657C220.391 306.776 220.237 306.867 220.069 306.924C219.902 306.981 219.724 307.003 219.548 306.988C219.209 306.968 218.892 306.818 218.661 306.569L210.322 297.451L201.33 305.663C201.079 305.893 200.748 306.013 200.408 305.998C200.069 305.984 199.749 305.835 199.518 305.586C199.405 305.462 199.317 305.317 199.259 305.159C199.202 305.001 199.177 304.834 199.185 304.666C199.193 304.498 199.235 304.334 199.307 304.182C199.379 304.031 199.481 303.895 199.606 303.783L209.543 294.694C209.794 294.465 210.125 294.345 210.465 294.359C210.805 294.374 211.125 294.522 211.355 294.772L219.694 303.9L228.686 295.678C228.941 295.454 229.272 295.335 229.611 295.347C229.95 295.365 230.269 295.515 230.498 295.766L238.837 304.894L247.839 296.672C247.961 296.557 248.106 296.469 248.263 296.41C248.421 296.352 248.588 296.326 248.756 296.334C248.924 296.341 249.088 296.381 249.24 296.453C249.392 296.524 249.528 296.625 249.641 296.75L257.98 305.878L266.981 297.656C267.231 297.427 267.561 297.307 267.899 297.322C268.237 297.336 268.555 297.484 268.784 297.734L278.097 307.846C278.263 308.032 278.372 308.262 278.41 308.509C278.448 308.756 278.413 309.008 278.309 309.235C278.206 309.462 278.039 309.655 277.828 309.789C277.618 309.922 277.372 309.992 277.123 309.989V309.95Z" fill="white"/>
<path d="M122.956 350.389L116.858 347.476L111.422 321.007L114.374 317.763L122.956 350.389Z" fill="#3061AD"/>
<path d="M122.957 350.389L131.052 345.654L124.116 323.852L114.374 317.763L122.957 350.389Z" fill="#3061AD"/>
<path opacity="0.2" d="M122.957 350.389L131.052 345.654L124.116 323.852L114.374 317.763L122.957 350.389Z" fill="black"/>
<path d="M255.69 355.201H255.018C253.726 355.166 252.501 354.62 251.612 353.682C250.723 352.744 250.243 351.491 250.278 350.199C250.313 348.907 250.86 347.682 251.798 346.793C252.736 345.904 253.989 345.424 255.281 345.459C262.782 345.703 278.661 341.095 287.741 332.288C288.289 331.75 288.957 331.35 289.689 331.119C305.072 326.502 310.79 335.825 311.024 336.224L302.646 341.183C302.675 341.245 302.711 341.303 302.753 341.358C302.665 341.231 300.483 338.435 293.547 340.15C282.159 350.535 264.682 355.201 255.69 355.201Z" fill="#142949"/>
<path d="M255.096 361.67L237.356 360.559L235.963 327.846L259.801 328.732L255.096 361.67Z" fill="#3061AD"/>
<path d="M255.096 361.67L259.246 357.539L261.818 337.149L259.801 328.732L255.096 361.67Z" fill="#3061AD"/>
<path opacity="0.2" d="M255.096 361.67L259.246 357.539L261.818 337.149L259.801 328.732L255.096 361.67Z" fill="black"/>
<path d="M357.893 349.288C357.256 349.287 356.637 349.079 356.13 348.694C345.998 340.998 332.311 327.33 327.06 314.149C326.981 313.958 326.925 313.759 326.894 313.554C324.332 298.318 321.887 266.257 321.78 264.903C321.751 264.519 321.798 264.134 321.918 263.768C322.039 263.402 322.23 263.064 322.481 262.772C322.988 262.183 323.708 261.82 324.483 261.761C325.258 261.703 326.025 261.955 326.614 262.462C327.203 262.969 327.567 263.69 327.625 264.465C327.625 264.786 330.129 297.159 332.622 312.269C337.864 325.089 352.106 338.25 359.686 344.037C360.174 344.407 360.533 344.922 360.713 345.507C360.893 346.093 360.884 346.72 360.688 347.3C360.492 347.881 360.119 348.385 359.621 348.742C359.123 349.098 358.525 349.289 357.913 349.288H357.893Z" fill="#142949"/>
<path d="M371.406 350.759C369.146 350.759 366.583 349.736 363.788 347.719C363.16 347.265 362.738 346.579 362.616 345.814C362.493 345.048 362.68 344.265 363.135 343.638C363.59 343.01 364.275 342.588 365.041 342.466C365.806 342.343 366.589 342.53 367.217 342.985C369.633 344.729 370.948 344.933 371.406 344.933C372.181 344.933 372.924 345.241 373.472 345.789C374.02 346.337 374.328 347.081 374.328 347.856C374.328 348.631 374.02 349.374 373.472 349.922C372.924 350.471 372.181 350.778 371.406 350.778V350.759Z" fill="#142949"/>
<path d="M364.606 347.632C367.733 338.348 380.553 340.179 384.976 341.563C388.754 342.659 392.378 344.23 395.76 346.239C398.147 347.797 398.186 350.418 395 351.909C391.104 353.74 381.206 352.113 381.206 352.113C386.311 354.344 381.206 357.958 372.234 354.412C369.321 353.263 363.505 351.042 364.606 347.632Z" fill="#3061AD"/>
<path d="M333.489 268.878C332.33 276.769 325.793 282.585 320.474 281.805C315.155 281.026 314.941 274.012 316.1 266.082C317.259 258.152 319.364 252.443 324.683 253.223C330.002 254.002 334.649 261.016 333.489 268.878Z" fill="#142949"/>
<path d="M204.915 237.411C205.356 237.411 205.714 237.054 205.714 236.613C205.714 236.171 205.356 235.814 204.915 235.814C204.474 235.814 204.116 236.171 204.116 236.613C204.116 237.054 204.474 237.411 204.915 237.411Z" fill="#142949"/>
<path d="M213.03 242.36C213.03 242.518 212.983 242.673 212.896 242.804C212.808 242.935 212.683 243.038 212.537 243.098C212.391 243.159 212.231 243.175 212.076 243.144C211.921 243.113 211.778 243.037 211.667 242.925C211.555 242.813 211.479 242.671 211.448 242.516C211.417 242.361 211.433 242.201 211.493 242.055C211.554 241.909 211.656 241.784 211.788 241.696C211.919 241.608 212.073 241.561 212.231 241.561C212.443 241.561 212.647 241.646 212.796 241.795C212.946 241.945 213.03 242.148 213.03 242.36Z" fill="#142949"/>
<path d="M213.927 336.76C213.927 336.918 213.88 337.072 213.792 337.204C213.704 337.335 213.58 337.437 213.434 337.498C213.288 337.558 213.127 337.574 212.972 337.543C212.817 337.512 212.675 337.436 212.563 337.325C212.451 337.213 212.375 337.071 212.344 336.916C212.314 336.761 212.329 336.6 212.39 336.454C212.45 336.308 212.553 336.183 212.684 336.096C212.816 336.008 212.97 335.961 213.128 335.961C213.34 335.961 213.543 336.045 213.693 336.195C213.843 336.345 213.927 336.548 213.927 336.76Z" fill="#142949"/>
<path d="M221.243 342.517C221.243 342.675 221.196 342.83 221.109 342.961C221.021 343.092 220.896 343.195 220.75 343.255C220.604 343.316 220.443 343.332 220.288 343.301C220.134 343.27 219.991 343.194 219.879 343.082C219.768 342.97 219.692 342.828 219.661 342.673C219.63 342.518 219.646 342.358 219.706 342.212C219.767 342.066 219.869 341.941 220.001 341.853C220.132 341.765 220.286 341.718 220.444 341.718C220.656 341.718 220.859 341.803 221.009 341.952C221.159 342.102 221.243 342.305 221.243 342.517Z" fill="#142949"/>
<path d="M80.8318 352.094C79.4294 352.028 78.0595 351.648 76.8235 350.982C75.5875 350.316 74.517 349.381 73.691 348.246C73.6505 348.193 73.6211 348.133 73.6045 348.069C73.5879 348.005 73.5845 347.939 73.5945 347.873C73.6045 347.808 73.6277 347.746 73.6627 347.689C73.6976 347.633 73.7437 347.585 73.7979 347.547C73.8522 347.509 73.9136 347.483 73.9784 347.47C74.0431 347.457 74.1099 347.457 74.1746 347.47C74.2393 347.484 74.3007 347.51 74.3549 347.548C74.4091 347.586 74.455 347.634 74.4898 347.69C76.3116 350.321 80.335 351.714 82.0886 350.886C82.2642 350.811 82.4207 350.698 82.5464 350.554C81.6604 350.165 80.884 349.562 80.2859 348.801C79.6879 348.04 79.2865 347.143 79.1173 346.19C78.8932 344.953 78.7178 343.267 79.731 343.053C81.1338 342.741 82.9653 346.122 83.6278 348.684C83.7478 349.108 83.7907 349.55 83.7544 349.989C84.3163 350.157 84.9073 350.203 85.4885 350.126C85.7504 350.106 86.0052 350.031 86.2367 349.907C86.4681 349.783 86.6712 349.612 86.8329 349.405C86.1917 348.921 85.6599 348.307 85.2721 347.604C84.8843 346.901 84.6493 346.123 84.5825 345.323C84.2123 342.654 84.4948 342.196 84.7871 341.962C84.8818 341.889 84.9948 341.845 85.1135 341.833C85.2322 341.82 85.3519 341.842 85.4593 341.894C86.5017 342.332 87.7584 346.112 88.0019 348.255C88.0311 348.478 88.0311 348.704 88.0019 348.928C88.4219 349.089 88.8672 349.175 89.3171 349.181C90.1432 349.213 90.9602 348.999 91.6649 348.567C91.5285 348.479 91.4019 348.382 91.2752 348.285C90.301 347.418 89.8529 346.034 90.0282 344.066C90.1646 342.537 90.5056 341.699 91.1193 341.436C91.3174 341.357 91.5342 341.336 91.7435 341.378C91.9527 341.419 92.1454 341.521 92.2981 341.67C92.9557 342.396 93.4472 343.257 93.7383 344.192C94.0293 345.128 94.113 346.115 93.9835 347.086C93.8989 347.491 93.7296 347.873 93.4866 348.207C95.2792 348.518 97.7926 348.012 99.965 347.476C100.029 347.461 100.095 347.458 100.16 347.468C100.225 347.479 100.288 347.502 100.344 347.536C100.4 347.57 100.449 347.615 100.487 347.669C100.526 347.722 100.554 347.782 100.569 347.846C100.584 347.91 100.587 347.977 100.577 348.041C100.566 348.106 100.543 348.169 100.509 348.225C100.475 348.281 100.43 348.33 100.376 348.368C100.323 348.407 100.263 348.435 100.199 348.45C97.5588 349.103 94.7141 349.639 92.7073 349.054C91.7277 349.799 90.5281 350.196 89.2976 350.184C88.7515 350.177 88.2109 350.075 87.6999 349.882C87.4733 350.233 87.1692 350.527 86.8112 350.741C86.4531 350.956 86.0506 351.085 85.6346 351.119C84.9023 351.214 84.1584 351.151 83.4524 350.934C83.2251 351.317 82.8848 351.62 82.4782 351.801C81.9557 352.012 81.395 352.112 80.8318 352.094ZM79.994 344.027C79.8593 344.69 79.886 345.375 80.072 346.024C80.2094 346.803 80.5326 347.538 81.0143 348.165C81.4959 348.793 82.1217 349.295 82.8387 349.629C82.8251 349.398 82.7859 349.169 82.7218 348.947C81.9619 346.161 80.5006 344.242 79.994 344.027ZM85.4203 343.18C85.4266 343.852 85.482 344.523 85.5859 345.187C85.6933 346.374 86.2179 347.486 87.0667 348.324C86.827 346.525 86.2695 344.783 85.4203 343.18ZM91.548 342.332C91.548 342.332 91.1778 342.517 91.0414 344.144C90.905 345.771 91.1875 346.891 91.9474 347.544C92.1272 347.69 92.3234 347.814 92.5319 347.914C92.7881 347.64 92.9693 347.305 93.058 346.94C93.2315 345.407 92.8173 343.865 91.8987 342.625C91.6941 342.371 91.5772 342.332 91.548 342.332Z" fill="#142949"/>
<path d="M223.415 359.459L226.055 354.88L223.415 350.301H220.59L222.188 354.88L220.59 359.459H223.415Z" fill="#142949"/>
<path d="M220.775 357.267C220.45 357.287 220.123 357.241 219.816 357.131C219.509 357.021 219.228 356.849 218.99 356.625C218.752 356.402 218.562 356.133 218.433 355.833C218.303 355.534 218.236 355.211 218.236 354.885C218.236 354.558 218.303 354.236 218.433 353.936C218.562 353.637 218.752 353.367 218.99 353.144C219.228 352.921 219.509 352.749 219.816 352.638C220.123 352.528 220.45 352.482 220.775 352.503L216.294 351.607L215.096 355.231L217.103 358.29L220.775 357.267Z" fill="#142949"/>
<path d="M221.165 350.301H215.875L213.235 354.88L215.875 359.459H221.165L223.805 354.88L221.165 350.301ZM218.525 357.267C218.053 357.269 217.59 357.13 217.197 356.869C216.803 356.608 216.495 356.236 216.313 355.8C216.131 355.364 216.082 354.884 216.173 354.42C216.264 353.957 216.491 353.53 216.824 353.196C217.158 352.861 217.583 352.633 218.046 352.54C218.51 352.447 218.99 352.493 219.427 352.674C219.863 352.854 220.237 353.16 220.499 353.553C220.762 353.946 220.902 354.407 220.902 354.88C220.902 355.511 220.652 356.117 220.207 356.564C219.761 357.011 219.157 357.264 218.525 357.267Z" fill="#3061AD"/>
<path d="M407.558 349.989L405.6 346.589L407.558 343.19H409.652L408.473 346.589L409.652 349.989H407.558Z" fill="#3061AD"/>
<path d="M409.516 348.362C409.759 348.381 410.003 348.348 410.233 348.268C410.464 348.187 410.675 348.06 410.853 347.894C411.032 347.728 411.175 347.527 411.272 347.303C411.37 347.08 411.42 346.838 411.42 346.594C411.42 346.35 411.37 346.109 411.272 345.886C411.175 345.662 411.032 345.461 410.853 345.295C410.675 345.129 410.464 345.002 410.233 344.921C410.003 344.84 409.759 344.808 409.516 344.826L412.847 344.164L413.734 346.853L412.253 349.122L409.516 348.362Z" fill="#3061AD"/>
<path d="M409.234 343.19H413.13L415.079 346.589L413.13 349.989H409.234L407.285 346.589L409.234 343.19ZM411.182 348.363C411.533 348.364 411.877 348.262 412.17 348.068C412.462 347.875 412.691 347.599 412.827 347.275C412.963 346.951 412.999 346.594 412.932 346.25C412.865 345.905 412.696 345.588 412.449 345.339C412.201 345.09 411.885 344.92 411.541 344.851C411.197 344.782 410.84 344.817 410.515 344.951C410.191 345.084 409.913 345.312 409.718 345.603C409.523 345.895 409.419 346.238 409.419 346.589C409.417 346.823 409.462 347.054 409.551 347.27C409.64 347.485 409.77 347.681 409.935 347.846C410.1 348.011 410.296 348.142 410.512 348.23C410.727 348.319 410.958 348.364 411.192 348.363H411.182Z" fill="#142949"/>
<path d="M334.6 354.51H339.004C339.555 354.507 340.083 354.286 340.472 353.896C340.86 353.505 341.079 352.976 341.079 352.425C341.079 351.874 340.86 351.345 340.472 350.954C340.083 350.563 339.555 350.343 339.004 350.34H334.6C334.047 350.34 333.517 350.56 333.126 350.951C332.735 351.342 332.516 351.872 332.516 352.425C332.516 352.978 332.735 353.508 333.126 353.899C333.517 354.29 334.047 354.51 334.6 354.51Z" fill="#142949"/>
<path d="M327.518 350.574C327.926 349.831 328.543 349.223 329.293 348.827C330.043 348.43 330.892 348.262 331.737 348.342C332.581 348.422 333.383 348.748 334.045 349.279C334.706 349.81 335.198 350.523 335.459 351.33C335.72 352.136 335.739 353.002 335.514 353.82C335.289 354.638 334.83 355.372 334.193 355.931C333.556 356.491 332.768 356.852 331.929 356.97C331.089 357.088 330.233 356.957 329.466 356.594C328.412 356.051 327.616 355.113 327.251 353.986C326.886 352.858 326.982 351.631 327.518 350.574Z" fill="#3061AD"/>
<path d="M328.706 356.593L329.913 357.162L334.109 348.262L332.901 347.693L328.706 356.593Z" fill="#142949"/>
</svg>
