<svg width="52" height="52" viewBox="0 0 52 52" fill="none" xmlns="http://www.w3.org/2000/svg">
<path d="M45.5041 6.65843C44.2377 6.60295 42.9466 6.98141 41.8823 7.7675L39.0264 9.87593L26 19.5061L13.0955 9.96734C12.9156 9.79161 12.6782 9.68698 12.4272 9.67281H12.6872L10.1237 7.77562C9.05881 6.98759 7.76583 6.607 6.49796 6.6625C5.2301 6.71799 3.98834 7.20872 3.02452 8.15953C1.80018 9.36663 1.03999 11.055 1.03999 12.9066V16.4775C1.02484 16.5792 1.02484 16.6825 1.03999 16.7842V41.08C1.03999 43.078 2.68196 44.72 4.67999 44.72H12.48C12.7558 44.72 13.0203 44.6104 13.2154 44.4154C13.4104 44.2203 13.52 43.9558 13.52 43.68V26.388L25.3825 35.1569C25.5613 35.2888 25.7777 35.36 26 35.36C26.2222 35.36 26.4386 35.2888 26.6175 35.1569L38.48 26.388V43.68C38.48 43.9558 38.5896 44.2203 38.7846 44.4154C38.9797 44.6104 39.2442 44.72 39.52 44.72H47.32C49.318 44.72 50.96 43.078 50.96 41.08V16.7639C50.9717 16.6742 50.9717 16.5834 50.96 16.4937V12.9066C50.96 11.0778 50.2221 9.39721 49.0141 8.18796C48.9791 8.15305 48.9674 8.14338 48.9816 8.1575C48.9795 8.15546 48.9775 8.15343 48.9755 8.1514C48.0118 7.2027 46.7705 6.71391 45.5041 6.65843ZM45.3903 8.7364C46.1769 8.76724 46.9394 9.06556 47.517 9.63421C47.5367 9.65363 47.5511 9.6683 47.5414 9.65859C48.3697 10.4877 48.88 11.6362 48.88 12.9066V16.1159L40.56 22.2645V11.44C40.5604 11.4047 40.5591 11.3695 40.5559 11.3344L43.1173 9.44125H43.1194C43.794 8.94293 44.6038 8.70556 45.3903 8.7364ZM6.61171 8.7425C7.39915 8.71167 8.21172 8.94786 8.88671 9.44734L11.4441 11.3384C11.441 11.3722 11.4397 11.4061 11.44 11.44V22.2645L3.11999 16.1159V12.9066C3.11999 11.6215 3.64182 10.4716 4.48499 9.64031C5.06246 9.07063 5.82428 8.77332 6.61171 8.7425ZM38.48 12.8659V23.8022L26 33.0261L13.52 23.8022V12.868L25.3825 21.6369C25.5613 21.7688 25.7777 21.84 26 21.84C26.2222 21.84 26.4386 21.7688 26.6175 21.6369L38.48 12.8659ZM3.11999 18.7017L11.44 24.8523V42.64H4.67999C3.80555 42.64 3.11999 41.9544 3.11999 41.08V18.7017ZM48.88 18.7017V41.08C48.88 41.9544 48.1944 42.64 47.32 42.64H40.56V24.8523L48.88 18.7017Z" fill="white"/>
</svg>
