<svg width="52" height="52" viewBox="0 0 52 52" fill="none" xmlns="http://www.w3.org/2000/svg">
<g clip-path="url(#clip0_118_44)">
<path d="M0 3.7245C0 1.66725 1.7095 0 3.81875 0H48.1812C50.2905 0 52 1.66725 52 3.7245V48.2755C52 50.3328 50.2905 52 48.1812 52H3.81875C1.7095 52 0 50.3328 0 48.2755V3.7245ZM16.0647 43.5305V20.0493H8.2615V43.5305H16.0647ZM12.1648 16.8415C14.885 16.8415 16.5782 15.041 16.5782 12.7855C16.5295 10.4813 14.8883 8.7295 12.2168 8.7295C9.54525 8.7295 7.8 10.4845 7.8 12.7855C7.8 15.041 9.49325 16.8415 12.1127 16.8415H12.1648ZM28.1158 43.5305V30.4168C28.1158 29.7148 28.1677 29.0127 28.3757 28.5122C28.938 27.1115 30.2218 25.6587 32.3798 25.6587C35.204 25.6587 36.3317 27.8103 36.3317 30.9693V43.5305H44.135V30.0625C44.135 22.8475 40.287 19.4935 35.152 19.4935C31.0115 19.4935 29.1558 21.7685 28.1158 23.3707V23.452H28.0638L28.1158 23.3707V20.0493H20.3157C20.4132 22.2528 20.3157 43.5305 20.3157 43.5305H28.1158Z" fill="#F7F3F3"/>
</g>
<defs>
<clipPath id="clip0_118_44">
<rect width="52" height="52" fill="white"/>
</clipPath>
</defs>
</svg>
