<svg width="52" height="52" viewBox="0 0 52 52" fill="none" xmlns="http://www.w3.org/2000/svg">
<g clip-path="url(#clip0_217_613)">
<path d="M44.2032 7.55968C41.8197 5.15304 38.9808 3.24513 35.8521 1.94723C32.7235 0.649341 29.3677 -0.0125477 25.9805 0.000180131C11.7877 0.000180131 0.221 11.5637 0.208 25.7597C0.208 30.3064 1.3975 34.7297 3.64325 38.6459L0 52.0002L13.663 48.4187C17.4411 50.4799 21.6767 51.5584 25.9805 51.5549H25.9935C40.1895 51.5549 51.753 39.9914 51.766 25.7824C51.7689 22.3961 51.1019 19.0427 49.8034 15.9152C48.5049 12.7878 46.6038 9.9481 44.2032 7.55968ZM25.9805 47.1934C22.1428 47.1904 18.3762 46.1578 15.0735 44.2034L14.2935 43.7354L6.188 45.8609L8.3525 37.9537L7.8455 37.1379C5.69987 33.7265 4.5651 29.7768 4.57275 25.7467C4.57275 13.9622 14.183 4.34868 25.9935 4.34868C28.8072 4.34363 31.594 4.89557 34.1933 5.97268C36.7926 7.04978 39.1531 8.63075 41.1385 10.6244C43.1304 12.6107 44.7096 14.9714 45.785 17.5707C46.8604 20.17 47.4108 22.9565 47.4045 25.7694C47.3915 37.5962 37.7812 47.1934 25.9805 47.1934ZM37.7292 31.1579C37.089 30.8362 33.9267 29.2794 33.332 29.0584C32.7405 28.8472 32.3082 28.7367 31.8857 29.3802C31.4535 30.0204 30.2185 31.4797 29.848 31.8989C29.4775 32.3312 29.094 32.3799 28.4505 32.0614C27.8102 31.7364 25.7335 31.0604 23.2765 28.8602C21.359 27.1539 20.0753 25.0414 19.6918 24.4012C19.3213 23.7577 19.656 23.4132 19.9777 23.0914C20.2605 22.8054 20.618 22.3374 20.9397 21.9669C21.2647 21.5964 21.372 21.3234 21.5832 20.8944C21.7945 20.4589 21.6937 20.0884 21.5345 19.7667C21.372 19.4449 20.0883 16.2697 19.5455 14.9892C19.0255 13.7249 18.4957 13.9004 18.0992 13.8842C17.7287 13.8614 17.2965 13.8614 16.8643 13.8614C16.5379 13.8697 16.2167 13.9453 15.9209 14.0834C15.6251 14.2216 15.3609 14.4193 15.145 14.6642C14.5535 15.3077 12.8993 16.8644 12.8993 20.0397C12.8993 23.2149 15.2067 26.2667 15.5317 26.6989C15.8502 27.1312 20.0622 33.6279 26.5265 36.4229C28.054 37.0892 29.2565 37.4824 30.1958 37.7814C31.7395 38.2754 33.1337 38.2007 34.2452 38.0414C35.4802 37.8529 38.051 36.4814 38.5937 34.9767C39.1267 33.4687 39.1267 32.1817 38.9642 31.9119C38.805 31.6389 38.3727 31.4797 37.7292 31.1579Z" fill="white"/>
</g>
<defs>
<clipPath id="clip0_217_613">
<rect width="52" height="52" fill="white"/>
</clipPath>
</defs>
</svg>
